<svg width="current" height="current" viewBox="0 0 36 36" fill="none" xmlns="http://www.w3.org/2000/svg">
<g id="Bold / Building, Infrastructure / Buildings">
<path id="Vector" fill-rule="evenodd" clip-rule="evenodd" d="M22.3333 3.55518H25.2222C27.9459 3.55518 29.3077 3.55518 30.1539 4.40131C31 5.24745 31 6.60928 31 9.33295V31.3607H32.4445C33.0428 31.3607 33.5278 31.8458 33.5278 32.4441C33.5278 33.0424 33.0428 33.5274 32.4445 33.5274H3.55556C2.95725 33.5274 2.47223 33.0424 2.47223 32.4441C2.47223 31.8458 2.95725 31.3607 3.55556 31.3607H5.00001V13.6663C5.00001 10.9426 5.00001 9.58078 5.84614 8.73464C6.69228 7.88851 8.05411 7.88851 10.7778 7.88851H16.5556C19.2792 7.88851 20.6411 7.88851 21.4872 8.73464C22.3333 9.58078 22.3333 10.9426 22.3333 13.6663V31.3607H24.5V13.6663L24.5 13.537C24.5002 12.2867 24.5003 11.1403 24.3749 10.2077C24.2369 9.18074 23.912 8.09531 23.0193 7.20258C22.1265 6.30985 21.0411 5.985 20.0142 5.84693C19.0947 5.72331 17.9674 5.72171 16.7376 5.72183C16.8593 5.16247 17.0625 4.74047 17.4017 4.40131C18.2478 3.55518 19.6097 3.55518 22.3333 3.55518ZM8.25001 12.2218C8.25001 11.6235 8.73503 11.1385 9.33334 11.1385H18C18.5983 11.1385 19.0833 11.6235 19.0833 12.2218C19.0833 12.8202 18.5983 13.3052 18 13.3052H9.33334C8.73503 13.3052 8.25001 12.8202 8.25001 12.2218ZM8.25001 16.5552C8.25001 15.9569 8.73503 15.4718 9.33334 15.4718H18C18.5983 15.4718 19.0833 15.9569 19.0833 16.5552C19.0833 17.1535 18.5983 17.6385 18 17.6385H9.33334C8.73503 17.6385 8.25001 17.1535 8.25001 16.5552ZM8.25001 20.8885C8.25001 20.2902 8.73503 19.8052 9.33334 19.8052H18C18.5983 19.8052 19.0833 20.2902 19.0833 20.8885C19.0833 21.4868 18.5983 21.9718 18 21.9718H9.33334C8.73503 21.9718 8.25001 21.4868 8.25001 20.8885ZM13.6667 27.0274C14.265 27.0274 14.75 27.5124 14.75 28.1107V31.3607H12.5833V28.1107C12.5833 27.5124 13.0684 27.0274 13.6667 27.0274Z" fill="current"/>
</g>
</svg>
