<svg width="693" height="163" viewBox="0 0 693 163" fill="none" xmlns="http://www.w3.org/2000/svg">
<rect x="0.5" y="33.1219" width="120" height="109.756" rx="11.7073" fill="#F2E8FB"/>
<path d="M26.7393 49.4503V65.4464H24.4717V49.4503H26.7393ZM21.9405 51.1202C21.9405 55.9718 20.2354 59.9972 14.5225 62.7042L13.3448 60.9113C17.4756 58.9601 19.295 56.4288 19.6553 52.8781H14.2061V51.1202H21.9405ZM32.3903 50.1359V56.587C34.3239 56.5607 36.0466 56.464 37.9274 56.1652L38.1559 57.923C35.8884 58.3273 33.8669 58.4327 31.4059 58.4152H30.1227V50.1359H32.3903ZM42.6911 49.4503V58.8019H40.4587V55.3917H36.5387V53.7042H40.4587V52.5968H36.5387V50.9269H40.4587V49.4503H42.6911ZM42.6911 59.4523V65.2706H32.0387V59.4523H42.6911ZM34.236 61.2277V63.4777H40.4762V61.2277H34.236ZM49.678 49.9249C52.1038 49.9249 53.9495 51.4366 53.9495 53.5812C53.9495 55.6906 52.1038 57.2198 49.678 57.2198C47.1995 57.2198 45.3714 55.6906 45.3714 53.5812C45.3714 51.4366 47.1995 49.9249 49.678 49.9249ZM49.678 51.7531C48.4476 51.7531 47.5335 52.421 47.5511 53.5812C47.5335 54.7238 48.4476 55.4093 49.678 55.4093C50.8909 55.4093 51.7874 54.7238 51.7874 53.5812C51.7874 52.421 50.8909 51.7531 49.678 51.7531ZM58.5198 49.4503V57.4659H56.2698V49.4503H58.5198ZM58.5198 58.1339V62.4757H50.012V63.5128H58.9593V65.2706H47.8148V60.8409H56.2874V59.8566H47.7796V58.1339H58.5198Z" fill="#2D3541"/>
<path d="M16.6184 75.9972C16.6067 77.8605 17.6848 79.7589 19.2551 80.5206L18.5637 81.4113C17.4212 80.8195 16.5364 79.6417 16.0794 78.2355C15.6048 79.7355 14.6848 80.9894 13.4895 81.6105L12.7981 80.7081C14.4153 79.9347 15.5051 77.9191 15.5051 75.9972V74.2042H16.6184V75.9972ZM21.1536 73.3253V77.5089H22.8411V78.4581H21.1536V83.8253H20.0403V73.3253H21.1536ZM27.4756 75.5167C27.4756 76.8761 28.4834 78.1534 30.1006 78.6691L29.5264 79.5363C28.3194 79.1378 27.4053 78.3116 26.9366 77.2628C26.4619 78.4054 25.5303 79.3077 24.2764 79.7472L23.7022 78.8683C25.3311 78.3175 26.3389 76.9581 26.3506 75.5167V75.0597H23.9951V74.1573H29.7842V75.0597H27.4756V75.5167ZM32.292 73.337V81.0011H31.1787V73.337H32.292ZM32.6084 82.7003V83.6027H25.4248V80.2745H26.5498V82.7003H32.6084ZM37.5416 81.1769V80.1339L41.2916 74.3448H42.8853V80.087H44.0455V81.1769H42.8853V82.8292H41.6666V81.1769H37.5416ZM38.9009 80.087H41.6666V75.88H41.5728L38.9009 80.0167V80.087ZM48.8909 75.2589C48.8909 76.5948 49.8167 77.8136 51.4105 78.3175L50.8831 79.1847C49.6878 78.8038 48.8148 78.0128 48.3519 77.0167C47.8948 78.1652 46.9749 79.0734 45.7151 79.5128L45.1409 78.6222C46.7816 78.0831 47.7659 76.7238 47.7776 75.2706V74.9777H45.4691V74.0753H51.1526V74.9777H48.8909V75.2589ZM53.473 73.3253V75.9269H54.9964V76.8409H53.473V79.63H52.3597V73.3253H53.473ZM50.0862 79.8878C52.2542 79.8878 53.5667 80.6027 53.5667 81.8331C53.5667 83.0753 52.2542 83.8136 50.0862 83.8019C47.8948 83.8136 46.5589 83.0753 46.5589 81.8331C46.5589 80.6027 47.8948 79.8878 50.0862 79.8878ZM50.0862 80.7667C48.5628 80.7667 47.6605 81.1534 47.6722 81.8331C47.6605 82.5363 48.5628 82.923 50.0862 82.923C51.598 82.923 52.4769 82.5363 52.4769 81.8331C52.4769 81.1534 51.598 80.7667 50.0862 80.7667Z" fill="#B862EB"/>
<rect x="86.8415" y="109.463" width="26.3415" height="26.3415" rx="13.1707" fill="#B862EB"/>
<g clip-path="url(#clip0_1255_3048)">
<path d="M102.006 119.822C103.141 119.15 103.708 118.814 104.124 119.052C104.541 119.29 104.531 119.945 104.511 121.255L104.506 121.594C104.5 121.966 104.498 122.152 104.567 122.315C104.636 122.479 104.77 122.601 105.037 122.846L105.281 123.069C106.222 123.931 106.692 124.362 106.582 124.846C106.472 125.33 105.854 125.546 104.618 125.979L104.298 126.091C103.947 126.214 103.771 126.276 103.636 126.399C103.502 126.522 103.423 126.693 103.266 127.036L103.123 127.347C102.57 128.552 102.293 129.154 101.808 129.215C101.324 129.275 100.952 128.754 100.208 127.712L100.015 127.443C99.8039 127.147 99.6982 126.999 99.5456 126.911C99.393 126.824 99.2108 126.807 98.8463 126.774L98.5144 126.744C97.2318 126.626 96.5904 126.567 96.4011 126.121C96.2118 125.675 96.5999 125.136 97.376 124.059L97.5768 123.781C97.7973 123.475 97.9076 123.322 97.948 123.144C97.9884 122.967 97.9544 122.786 97.8862 122.423L97.8242 122.092C97.5846 120.815 97.4647 120.177 97.8325 119.84C98.2002 119.504 98.812 119.692 100.036 120.068L100.352 120.166C100.7 120.273 100.874 120.326 101.051 120.304C101.229 120.282 101.39 120.186 101.713 119.995L102.006 119.822Z" fill="white"/>
<path fill-rule="evenodd" clip-rule="evenodd" d="M97.7949 115.295C98.0092 115.081 98.3567 115.081 98.571 115.295L100.034 116.758C100.249 116.973 100.249 117.32 100.034 117.534C99.8201 117.749 99.4726 117.749 99.2583 117.534L97.7949 116.071C97.5806 115.857 97.5806 115.509 97.7949 115.295ZM93.7705 116.392C93.9848 116.178 94.3323 116.178 94.5466 116.392L96.3759 118.222C96.5902 118.436 96.5902 118.783 96.3759 118.998C96.1616 119.212 95.8141 119.212 95.5998 118.998L93.7705 117.169C93.5562 116.954 93.5562 116.607 93.7705 116.392ZM100.356 117.856C100.57 117.642 100.918 117.642 101.132 117.856L101.498 118.222C101.712 118.436 101.712 118.783 101.498 118.998C101.284 119.212 100.936 119.212 100.722 118.998L100.356 118.632C100.142 118.418 100.142 118.07 100.356 117.856ZM92.3071 119.319C92.5214 119.105 92.8689 119.105 93.0832 119.319L93.449 119.685C93.6634 119.899 93.6634 120.247 93.449 120.461C93.2347 120.676 92.8873 120.676 92.673 120.461L92.3071 120.095C92.0928 119.881 92.0928 119.534 92.3071 119.319ZM94.1364 121.149C94.3507 120.934 94.6981 120.934 94.9125 121.149L96.01 122.246C96.2243 122.46 96.2243 122.808 96.01 123.022C95.7957 123.237 95.4482 123.237 95.2339 123.022L94.1364 121.925C93.9221 121.71 93.9221 121.363 94.1364 121.149Z" fill="white"/>
</g>
<rect x="132.5" y="33.1219" width="120" height="109.756" rx="11.7073" fill="#FFF4D6"/>
<path d="M149.599 50.5753C152.042 50.5753 153.8 52.7902 153.817 56.2706C153.8 59.7863 152.042 61.9835 149.599 61.9835C147.155 61.9835 145.362 59.7863 145.38 56.2706C145.362 52.7902 147.155 50.5753 149.599 50.5753ZM149.599 52.5968C148.368 52.5968 147.542 53.8976 147.542 56.2706C147.542 58.6613 148.368 59.9445 149.599 59.9445C150.847 59.9445 151.655 58.6613 151.673 56.2706C151.655 53.8976 150.847 52.5968 149.599 52.5968ZM160.181 53.1593V55.0402H157.913V57.8878H160.181V59.7159H157.913V65.4464H155.663V49.4503H157.913V53.1593H160.181ZM164.443 50.1359V51.8761H165.884V50.1359H168.047V57.1671H162.281V50.1359H164.443ZM164.443 55.3741H165.884V53.6515H164.443V55.3741ZM171.105 50.1359V51.8761H172.564V50.1359H174.744V57.1671H168.925V50.1359H171.105ZM171.105 55.3741H172.564V53.6515H171.105V55.3741ZM175.834 58.4855V60.3136H169.576V65.4464H167.361V60.3136H161.191V58.4855H175.834ZM191.75 55.6906V57.4484H177.125V55.6906H191.75ZM190.01 53.0538V54.8116H178.953V49.7667H189.887V51.5597H181.186V53.0538H190.01ZM189.94 58.3976V62.5812H181.028V63.5656H190.362V65.3058H178.83V60.9816H187.725V60.0851H178.813V58.3976H189.94Z" fill="#2D3541"/>
<path d="M148.958 75.9972C148.947 77.8605 150.025 79.7589 151.595 80.5206L150.904 81.4113C149.761 80.8195 148.876 79.6417 148.419 78.2355C147.945 79.7355 147.025 80.9894 145.829 81.6105L145.138 80.7081C146.755 79.9347 147.845 77.9191 147.845 75.9972V74.2042H148.958V75.9972ZM153.493 73.3253V77.5089H155.181V78.4581H153.493V83.8253H152.38V73.3253H153.493ZM159.815 75.5167C159.815 76.8761 160.823 78.1534 162.44 78.6691L161.866 79.5363C160.659 79.1378 159.745 78.3116 159.276 77.2628C158.802 78.4054 157.87 79.3077 156.616 79.7472L156.042 78.8683C157.671 78.3175 158.679 76.9581 158.69 75.5167V75.0597H156.335V74.1573H162.124V75.0597H159.815V75.5167ZM164.632 73.337V81.0011H163.519V73.337H164.632ZM164.948 82.7003V83.6027H157.765V80.2745H158.89V82.7003H164.948ZM172.952 82.9464C171.346 82.9464 170.139 81.962 170.081 80.6144H171.335C171.405 81.3409 172.096 81.8683 172.952 81.8683C173.983 81.8683 174.721 81.1183 174.721 80.1105C174.721 79.0792 173.96 78.3292 172.893 78.3175C172.213 78.3175 171.698 78.5402 171.405 79.0675H170.186L170.737 74.3448H175.542V75.4464H171.803L171.522 77.8253H171.604C171.956 77.4855 172.553 77.2511 173.198 77.2511C174.792 77.2511 175.975 78.4347 175.975 80.0753C175.975 81.7511 174.721 82.9464 172.952 82.9464ZM180.891 75.2589C180.891 76.5948 181.817 77.8136 183.41 78.3175L182.883 79.1847C181.688 78.8038 180.815 78.0128 180.352 77.0167C179.895 78.1652 178.975 79.0734 177.715 79.5128L177.141 78.6222C178.782 78.0831 179.766 76.7238 179.778 75.2706V74.9777H177.469V74.0753H183.153V74.9777H180.891V75.2589ZM185.473 73.3253V75.9269H186.996V76.8409H185.473V79.63H184.36V73.3253H185.473ZM182.086 79.8878C184.254 79.8878 185.567 80.6027 185.567 81.8331C185.567 83.0753 184.254 83.8136 182.086 83.8019C179.895 83.8136 178.559 83.0753 178.559 81.8331C178.559 80.6027 179.895 79.8878 182.086 79.8878ZM182.086 80.7667C180.563 80.7667 179.66 81.1534 179.672 81.8331C179.66 82.5363 180.563 82.923 182.086 82.923C183.598 82.923 184.477 82.5363 184.477 81.8331C184.477 81.1534 183.598 80.7667 182.086 80.7667Z" fill="#FF9B05"/>
<rect x="218.841" y="109.463" width="26.3415" height="26.3415" rx="13.1707" fill="#FF9B05"/>
<g clip-path="url(#clip1_1255_3048)">
<path d="M232.621 129.806C234.909 129.347 237.866 127.702 237.866 123.447C237.866 119.575 235.032 116.997 232.994 115.812C232.542 115.55 232.012 115.895 232.012 116.418V117.756C232.012 118.811 231.569 120.737 230.336 121.538C229.707 121.947 229.027 121.335 228.951 120.588L228.888 119.975C228.815 119.263 228.089 118.83 227.52 119.264C226.496 120.045 225.427 121.412 225.427 123.447C225.427 128.651 229.297 129.951 231.232 129.951C231.344 129.951 231.463 129.948 231.586 129.941C230.63 129.859 229.085 129.266 229.085 127.349C229.085 125.85 230.179 124.836 231.011 124.342C231.234 124.21 231.496 124.382 231.496 124.642V125.073C231.496 125.403 231.623 125.919 231.927 126.272C232.271 126.671 232.775 126.253 232.816 125.727C232.829 125.562 232.996 125.456 233.139 125.54C233.608 125.814 234.207 126.4 234.207 127.349C234.207 128.848 233.381 129.537 232.621 129.806Z" fill="white"/>
</g>
<rect x="264.5" y="13" width="164" height="150" rx="16" fill="#FDE6E5"/>
<path d="M294.359 33.6211V37.9805H296.522V39.8262H294.359V45.1875H292.109V33.6211H294.359ZM289.508 34.9043V36.6973H284.533V40.7402C287.425 40.7227 289.016 40.6348 290.809 40.248L291.037 42.041C289.033 42.4629 287.188 42.5508 283.637 42.5508H282.283V34.9043H289.508ZM294.94 47.543V49.3359H283.988V43.957H286.221V47.543H294.94ZM301.733 36.4863C301.733 37.7256 301.953 39.2109 302.823 40.3711C303.667 39.2373 303.878 37.7695 303.895 36.4863V36.4688H303.087V34.6758H307.657V36.4688H306.022V36.4863C306.005 38.2969 306.567 40.2305 308.413 41.1973L307.217 42.7793C306.075 42.1729 305.363 41.1885 304.95 40.0195C304.572 41.2236 303.913 42.2871 302.805 42.9551C301.716 42.2959 301.065 41.25 300.678 40.0898C300.265 41.2324 299.562 42.1904 298.446 42.7793L297.251 41.1973C299.044 40.2129 299.641 38.2793 299.641 36.4863V36.4688H297.884V34.6758H302.559V36.4688H301.733V36.4863ZM310.733 33.6211V37.4531H312.385V39.3164H310.733V43.166H308.501V33.6211H310.733ZM310.733 43.8164V49.6172H308.501V45.6094H299.518V43.8164H310.733ZM326.896 33.6211V49.6523H324.628V33.6211H326.896ZM318.212 34.7461C320.62 34.7461 322.413 36.9609 322.413 40.4414C322.413 43.957 320.62 46.1543 318.212 46.1543C315.751 46.1543 313.958 43.957 313.976 40.4414C313.958 36.9609 315.751 34.7461 318.212 34.7461ZM318.212 36.7676C316.964 36.7676 316.138 38.0684 316.138 40.4414C316.138 42.832 316.964 44.1152 318.212 44.1152C319.425 44.1152 320.251 42.832 320.251 40.4414C320.251 38.0684 319.425 36.7676 318.212 36.7676ZM342.109 33.6387V37.3652H344.271V39.2109H342.109V43.2188H339.859V33.6387H342.109ZM337.328 34.5879V39.3516H332.23V40.7578C334.876 40.7402 336.669 40.6348 338.699 40.2832L338.945 42.0762C336.643 42.498 334.586 42.5859 331.352 42.5859H329.998V37.6641H335.148V36.3457H329.98V34.5879H337.328ZM336.836 43.5352C340.158 43.5352 342.268 44.6953 342.268 46.6113C342.268 48.5098 340.158 49.5996 336.836 49.5996C333.443 49.5996 331.352 48.5098 331.352 46.6113C331.352 44.6953 333.443 43.5352 336.836 43.5352ZM336.836 45.2754C334.709 45.2754 333.549 45.7148 333.566 46.6113C333.549 47.4727 334.709 47.9297 336.836 47.9297C338.945 47.9297 340.053 47.4727 340.053 46.6113C340.053 45.7148 338.945 45.2754 336.836 45.2754Z" fill="#2D3541"/>
<path d="M285.149 60.168C285.138 62.0312 286.216 63.9297 287.786 64.6914L287.095 65.582C285.952 64.9902 285.067 63.8125 284.61 62.4062C284.136 63.9062 283.216 65.1602 282.02 65.7812L281.329 64.8789C282.946 64.1055 284.036 62.0898 284.036 60.168V58.375H285.149V60.168ZM289.685 57.4961V61.6797H291.372V62.6289H289.685V67.9961H288.571V57.4961H289.685ZM296.007 59.6875C296.007 61.0469 297.014 62.3242 298.632 62.8398L298.057 63.707C296.85 63.3086 295.936 62.4824 295.468 61.4336C294.993 62.5762 294.061 63.4785 292.807 63.918L292.233 63.0391C293.862 62.4883 294.87 61.1289 294.882 59.6875V59.2305H292.526V58.3281H298.315V59.2305H296.007V59.6875ZM300.823 57.5078V65.1719H299.71V57.5078H300.823ZM301.139 66.8711V67.7734H293.956V64.4453H295.081V66.8711H301.139ZM309.483 58.5156V67H308.182V59.8047H308.135L306.108 61.1289V59.8984L308.217 58.5156H309.483ZM315.184 59.4297C315.184 60.7656 316.109 61.9844 317.703 62.4883L317.176 63.3555C315.98 62.9746 315.107 62.1836 314.645 61.1875C314.188 62.3359 313.268 63.2441 312.008 63.6836L311.434 62.793C313.074 62.2539 314.059 60.8945 314.07 59.4414V59.1484H311.762V58.2461H317.445V59.1484H315.184V59.4297ZM319.766 57.4961V60.0977H321.289V61.0117H319.766V63.8008H318.652V57.4961H319.766ZM316.379 64.0586C318.547 64.0586 319.859 64.7734 319.859 66.0039C319.859 67.2461 318.547 67.9844 316.379 67.9727C314.188 67.9844 312.852 67.2461 312.852 66.0039C312.852 64.7734 314.188 64.0586 316.379 64.0586ZM316.379 64.9375C314.855 64.9375 313.953 65.3242 313.965 66.0039C313.953 66.707 314.855 67.0938 316.379 67.0938C317.891 67.0938 318.77 66.707 318.77 66.0039C318.77 65.3242 317.891 64.9375 316.379 64.9375Z" fill="#F56965"/>
<rect x="258.5" width="50" height="26" rx="13" fill="url(#paint0_linear_1255_3048)"/>
<path d="M276.71 8.51562V17H275.186L271.46 11.6094H271.389V17H269.632V8.51562H271.178L274.882 13.9062H274.964V8.51562H276.71ZM281.227 17.1289C279.282 17.1289 278.086 15.8633 278.086 13.8477C278.086 11.8789 279.293 10.5547 281.157 10.5547C282.833 10.5547 284.145 11.6094 284.145 13.7773V14.2695H279.797C279.797 15.2305 280.372 15.8281 281.262 15.8281C281.848 15.8281 282.27 15.5703 282.446 15.1836H284.098C283.852 16.3555 282.797 17.1289 281.227 17.1289ZM279.797 13.1797H282.504C282.504 12.4062 281.965 11.8555 281.192 11.8555C280.395 11.8555 279.827 12.4473 279.797 13.1797ZM286.682 17L284.948 10.6367H286.705L287.701 14.9375H287.76L288.803 10.6367H290.526L291.58 14.9141H291.639L292.623 10.6367H294.381L292.635 17H290.807L289.705 12.957H289.623L288.522 17H286.682ZM297.562 8.51562L297.41 14.457H295.91L295.758 8.51562H297.562ZM296.672 17.1055C296.121 17.1055 295.676 16.6602 295.688 16.1211C295.676 15.582 296.121 15.1484 296.672 15.1484C297.188 15.1484 297.645 15.582 297.645 16.1211C297.645 16.6602 297.188 17.1055 296.672 17.1055Z" fill="white"/>
<rect x="382.5" y="117" width="36" height="36" rx="18" fill="#F56965"/>
<g clip-path="url(#clip2_1255_3048)">
<path d="M396.606 141.247C393.798 139.083 390.5 136.542 390.5 132.137C390.5 127.274 396 123.825 400.5 128.501L402.5 130.499C402.793 130.792 403.268 130.792 403.561 130.499C403.854 130.206 403.853 129.731 403.56 129.438L401.628 127.507C405.868 124.403 410.5 127.675 410.5 132.137C410.5 136.542 407.202 139.083 404.394 141.247C404.102 141.472 403.815 141.692 403.538 141.911C402.5 142.729 401.5 143.5 400.5 143.5C399.5 143.5 398.5 142.729 397.462 141.911C397.185 141.692 396.898 141.472 396.606 141.247Z" fill="white"/>
</g>
<rect x="440.5" y="33.1219" width="120" height="109.756" rx="11.7073" fill="#E5F5ED"/>
<path d="M466.265 53.4581V55.2511H461.712V56.8507H467.917V58.6437H453.292V56.8507H459.48V55.2511H455.138V49.6964H457.37V53.4581H466.265ZM460.569 59.505C464.032 59.505 466.124 60.5948 466.142 62.4757C466.124 64.3566 464.032 65.4464 460.569 65.4464C457.071 65.4464 454.962 64.3566 454.962 62.4757C454.962 60.5948 457.071 59.505 460.569 59.505ZM460.569 61.2277C458.355 61.2101 457.23 61.6144 457.247 62.4757C457.23 63.3019 458.355 63.7413 460.569 63.7413C462.731 63.7413 463.874 63.3019 463.892 62.4757C463.874 61.6144 462.731 61.2101 460.569 61.2277ZM482.093 50.382V51.8234C482.093 53.3175 482.093 54.9523 481.689 57.1847H483.799V58.9952H477.558V65.464H475.308V58.9952H469.209V57.1847H479.422C479.826 55.1193 479.861 53.5548 479.861 52.1749H470.879V50.382H482.093ZM494.09 50.6984V52.4913H492.789V56.3937C493.422 56.3409 494.055 56.2706 494.653 56.1827L494.811 57.8351C491.594 58.4327 487.903 58.5206 485.284 58.5206L485.037 56.6749L486.778 56.6573V52.4913H485.459V50.6984H494.09ZM497.817 49.4503V53.5812H499.979V55.4269H497.817V60.2433H495.567V49.4503H497.817ZM493.791 59.6632C493.791 61.4386 495.479 63.1788 498.889 63.6183L498.01 65.3761C495.505 64.9894 493.677 63.9083 492.701 62.4054C491.726 63.9083 489.898 64.9894 487.375 65.3761L486.514 63.6183C489.889 63.1788 491.576 61.4386 491.576 59.6632V59.382H493.791V59.6632ZM488.94 56.6222C489.493 56.6046 490.056 56.587 490.627 56.5519V52.4913H488.94V56.6222Z" fill="#2D3541"/>
<path d="M457.099 75.9972C457.087 77.8605 458.165 79.7589 459.736 80.5206L459.044 81.4113C457.902 80.8195 457.017 79.6417 456.56 78.2355C456.085 79.7355 455.165 80.9894 453.97 81.6105L453.279 80.7081C454.896 79.9347 455.986 77.9191 455.986 75.9972V74.2042H457.099V75.9972ZM461.634 73.3253V77.5089H463.322V78.4581H461.634V83.8253H460.521V73.3253H461.634ZM467.956 75.5167C467.956 76.8761 468.964 78.1534 470.581 78.6691L470.007 79.5363C468.8 79.1378 467.886 78.3116 467.417 77.2628C466.942 78.4054 466.011 79.3077 464.757 79.7472L464.183 78.8683C465.812 78.3175 466.819 76.9581 466.831 75.5167V75.0597H464.476V74.1573H470.265V75.0597H467.956V75.5167ZM472.772 73.337V81.0011H471.659V73.337H472.772ZM473.089 82.7003V83.6027H465.905V80.2745H467.03V82.7003H473.089ZM478.21 82.8292V81.8917L481.151 78.9269C482.077 77.9542 482.545 77.4152 482.545 76.6769C482.545 75.8448 481.866 75.3058 480.975 75.3058C480.038 75.3058 479.428 75.9034 479.428 76.8058H478.21C478.198 75.2589 479.381 74.2277 480.999 74.2277C482.639 74.2277 483.764 75.2589 483.776 76.6417C483.764 77.5909 483.319 78.3409 481.725 79.9113L480.002 81.6573V81.7277H483.917V82.8292H478.21ZM488.891 75.2589C488.891 76.5948 489.817 77.8136 491.41 78.3175L490.883 79.1847C489.688 78.8038 488.815 78.0128 488.352 77.0167C487.895 78.1652 486.975 79.0734 485.715 79.5128L485.141 78.6222C486.782 78.0831 487.766 76.7238 487.778 75.2706V74.9777H485.469V74.0753H491.153V74.9777H488.891V75.2589ZM493.473 73.3253V75.9269H494.996V76.8409H493.473V79.63H492.36V73.3253H493.473ZM490.086 79.8878C492.254 79.8878 493.567 80.6027 493.567 81.8331C493.567 83.0753 492.254 83.8136 490.086 83.8019C487.895 83.8136 486.559 83.0753 486.559 81.8331C486.559 80.6027 487.895 79.8878 490.086 79.8878ZM490.086 80.7667C488.563 80.7667 487.66 81.1534 487.672 81.8331C487.66 82.5363 488.563 82.923 490.086 82.923C491.598 82.923 492.477 82.5363 492.477 81.8331C492.477 81.1534 491.598 80.7667 490.086 80.7667Z" fill="#30B57D"/>
<rect x="526.841" y="109.463" width="26.3415" height="26.3415" rx="13.1707" fill="#30B57D"/>
<g clip-path="url(#clip3_1255_3048)">
<path fill-rule="evenodd" clip-rule="evenodd" d="M536.255 128.914C535.219 128.296 534.321 127.412 533.675 126.293C533.03 125.174 532.713 123.956 532.695 122.751L532.8 122.771C534.958 123.196 537.413 122.428 539.431 121.189C539.696 121.026 539.956 120.854 540.21 120.673C540.512 121.05 540.783 121.433 541.001 121.811C541.274 122.285 541.522 122.848 541.743 123.45C541.364 123.633 540.995 123.835 540.639 124.051C538.597 125.294 536.854 127.107 536.255 128.913L536.255 128.914ZM543.129 129.254C541.223 130.154 539.091 130.16 537.247 129.409L537.297 129.259C537.782 127.794 539.287 126.159 541.21 124.989C541.499 124.813 541.794 124.65 542.093 124.501C542.277 125.108 542.437 125.724 542.572 126.302C542.747 127.052 542.877 127.725 542.963 128.21C543.006 128.452 543.038 128.647 543.06 128.781C543.07 128.848 543.078 128.899 543.083 128.934L543.089 128.973L543.09 128.982L543.091 128.985L543.129 129.254Z" fill="white"/>
<path d="M543.104 124.056C544.486 123.53 545.893 123.327 547.112 123.595L547.262 123.628C547.173 124.275 546.997 124.908 546.741 125.509C546.211 126.752 545.334 127.858 544.153 128.667L544.144 128.609C544.121 128.469 544.088 128.268 544.044 128.018C543.955 127.519 543.822 126.826 543.641 126.053C543.495 125.429 543.317 124.742 543.104 124.056Z" fill="white"/>
<path d="M541.075 119.998C542.34 118.923 543.334 117.649 543.762 116.377L543.77 116.354C544.806 116.973 545.703 117.856 546.349 118.975C546.995 120.094 547.312 121.313 547.33 122.519C545.869 122.203 544.266 122.445 542.752 123.016C542.517 122.384 542.251 121.781 541.951 121.262C541.705 120.836 541.405 120.411 541.075 119.998Z" fill="white"/>
<path d="M537.319 116.381C537.134 116.235 536.984 116.12 536.879 116.041L536.863 116.029C538.153 115.412 539.547 115.207 540.887 115.369C541.536 115.448 542.173 115.613 542.778 115.86L542.722 116.027C542.373 117.064 541.514 118.186 540.36 119.166C539.825 118.584 539.262 118.045 538.748 117.585C538.194 117.088 537.687 116.673 537.319 116.381Z" fill="white"/>
<path d="M538.857 120.254C536.964 121.416 534.795 122.046 533.012 121.694L532.762 121.645C533.032 119.674 534.1 117.832 535.828 116.631L536.068 116.805L536.069 116.806L536.076 116.811L536.105 116.832C536.13 116.851 536.168 116.88 536.218 116.917C536.317 116.992 536.46 117.102 536.638 117.242C536.993 117.523 537.482 117.923 538.015 118.402C538.498 118.835 539.009 119.324 539.487 119.839C539.283 119.983 539.072 120.121 538.857 120.254Z" fill="white"/>
</g>
<rect x="572.5" y="33.1219" width="120" height="109.756" rx="11.7073" fill="#DEEEFF"/>
<path d="M598.906 49.4503V65.4464H596.674V49.4503H598.906ZM585.529 60.9288C586.751 60.92 588.148 60.92 589.607 60.8761V59.5226C587.849 59.215 586.707 58.1251 586.724 56.6222C586.707 54.8292 588.342 53.6163 590.697 53.6163C593.07 53.6163 594.722 54.8292 594.722 56.6222C594.722 58.1163 593.58 59.2062 591.822 59.5226V60.8058C593.158 60.7443 594.511 60.6388 595.795 60.4718L595.953 62.1241C592.455 62.7218 588.676 62.757 585.828 62.757L585.529 60.9288ZM595.566 51.2257V52.9835H585.845V51.2257H589.607V49.5206H591.84V51.2257H595.566ZM590.697 55.3214C589.607 55.3214 588.834 55.796 588.851 56.6222C588.834 57.4659 589.607 57.923 590.697 57.923C591.822 57.923 592.578 57.4659 592.578 56.6222C592.578 55.796 591.822 55.3214 590.697 55.3214ZM607.264 53.0714C607.246 55.9366 608.477 58.837 611.043 60.0675L609.69 61.8605C607.976 61.0167 606.825 59.4347 606.157 57.5011C605.462 59.5753 604.223 61.2716 602.412 62.1593L601.024 60.3488C603.731 59.1007 605.014 56.0421 605.014 53.0714V50.6808H607.264V53.0714ZM613.996 49.4503V55.6202H616.352V57.5187H613.996V65.4464H611.746V49.4503H613.996ZM623.181 53.0714C623.163 55.9366 624.394 58.837 626.96 60.0675L625.606 61.8605C623.893 61.0167 622.741 59.4347 622.073 57.5011C621.379 59.5753 620.14 61.2716 618.329 62.1593L616.94 60.3488C619.647 59.1007 620.931 56.0421 620.931 53.0714V50.6808H623.181V53.0714ZM629.913 49.4503V55.6202H632.269V57.5187H629.913V65.4464H627.663V49.4503H629.913ZM645.9 49.4679V53.2472H648.062V55.1105H645.9V58.9601H643.65V49.4679H645.9ZM645.9 59.6281V65.2706H635.423V59.6281H645.9ZM637.621 61.3859V63.4777H643.703V61.3859H637.621ZM641.119 50.2413V55.1105H636.021V56.5519C638.667 56.5343 640.46 56.4464 642.49 56.0948L642.736 57.8527C640.433 58.3097 638.377 58.38 635.142 58.38H633.789V53.423H638.939V52.0343H633.771V50.2413H641.119ZM663.75 55.6906V57.4484H649.125V55.6906H663.75ZM662.01 53.0538V54.8116H650.953V49.7667H661.887V51.5597H653.186V53.0538H662.01ZM661.94 58.3976V62.5812H653.028V63.5656H662.362V65.3058H650.83V60.9816H659.725V60.0851H650.813V58.3976H661.94Z" fill="#2D3541"/>
<path d="M589.099 75.9972C589.087 77.8605 590.165 79.7589 591.736 80.5206L591.044 81.4113C589.902 80.8195 589.017 79.6417 588.56 78.2355C588.085 79.7355 587.165 80.9894 585.97 81.6105L585.279 80.7081C586.896 79.9347 587.986 77.9191 587.986 75.9972V74.2042H589.099V75.9972ZM593.634 73.3253V77.5089H595.322V78.4581H593.634V83.8253H592.521V73.3253H593.634ZM599.956 75.5167C599.956 76.8761 600.964 78.1534 602.581 78.6691L602.007 79.5363C600.8 79.1378 599.886 78.3116 599.417 77.2628C598.942 78.4054 598.011 79.3077 596.757 79.7472L596.183 78.8683C597.812 78.3175 598.819 76.9581 598.831 75.5167V75.0597H596.476V74.1573H602.265V75.0597H599.956V75.5167ZM604.772 73.337V81.0011H603.659V73.337H604.772ZM605.089 82.7003V83.6027H597.905V80.2745H599.03V82.7003H605.089ZM610.209 82.8292V81.8917L613.151 78.9269C614.077 77.9542 614.545 77.4152 614.545 76.6769C614.545 75.8448 613.866 75.3058 612.975 75.3058C612.038 75.3058 611.428 75.9034 611.428 76.8058H610.209C610.198 75.2589 611.381 74.2277 612.999 74.2277C614.639 74.2277 615.764 75.2589 615.776 76.6417C615.764 77.5909 615.319 78.3409 613.725 79.9113L612.002 81.6573V81.7277H615.917V82.8292H610.209ZM620.891 75.2589C620.891 76.5948 621.817 77.8136 623.41 78.3175L622.883 79.1847C621.688 78.8038 620.815 78.0128 620.352 77.0167C619.895 78.1652 618.975 79.0734 617.715 79.5128L617.141 78.6222C618.782 78.0831 619.766 76.7238 619.778 75.2706V74.9777H617.469V74.0753H623.153V74.9777H620.891V75.2589ZM625.473 73.3253V75.9269H626.996V76.8409H625.473V79.63H624.36V73.3253H625.473ZM622.086 79.8878C624.254 79.8878 625.567 80.6027 625.567 81.8331C625.567 83.0753 624.254 83.8136 622.086 83.8019C619.895 83.8136 618.559 83.0753 618.559 81.8331C618.559 80.6027 619.895 79.8878 622.086 79.8878ZM622.086 80.7667C620.563 80.7667 619.66 81.1534 619.672 81.8331C619.66 82.5363 620.563 82.923 622.086 82.923C623.598 82.923 624.477 82.5363 624.477 81.8331C624.477 81.1534 623.598 80.7667 622.086 80.7667Z" fill="#146EC2"/>
<rect x="658.841" y="109.463" width="26.3415" height="26.3415" rx="13.1707" fill="#146EC2"/>
<g clip-path="url(#clip4_1255_3048)">
<path fill-rule="evenodd" clip-rule="evenodd" d="M674.207 115.317H675.671C677.051 115.317 677.74 115.317 678.169 115.746C678.598 116.174 678.598 116.864 678.598 118.244V129.403H679.329C679.632 129.403 679.878 129.648 679.878 129.951C679.878 130.254 679.632 130.5 679.329 130.5H664.695C664.392 130.5 664.146 130.254 664.146 129.951C664.146 129.648 664.392 129.403 664.695 129.403H665.427V120.439C665.427 119.059 665.427 118.37 665.856 117.941C666.284 117.512 666.974 117.512 668.354 117.512H671.281C672.66 117.512 673.35 117.512 673.779 117.941C674.207 118.37 674.207 119.059 674.207 120.439V129.403H675.305V120.439L675.305 120.374C675.305 119.74 675.305 119.159 675.242 118.687C675.172 118.167 675.007 117.617 674.555 117.165C674.103 116.713 673.553 116.548 673.033 116.478C672.567 116.415 671.996 116.415 671.373 116.415C671.434 116.131 671.537 115.918 671.709 115.746C672.138 115.317 672.828 115.317 674.207 115.317ZM667.073 119.707C667.073 119.404 667.319 119.159 667.622 119.159H672.012C672.315 119.159 672.561 119.404 672.561 119.707C672.561 120.01 672.315 120.256 672.012 120.256H667.622C667.319 120.256 667.073 120.01 667.073 119.707ZM667.073 121.903C667.073 121.599 667.319 121.354 667.622 121.354H672.012C672.315 121.354 672.561 121.599 672.561 121.903C672.561 122.206 672.315 122.451 672.012 122.451H667.622C667.319 122.451 667.073 122.206 667.073 121.903ZM667.073 124.098C667.073 123.795 667.319 123.549 667.622 123.549H672.012C672.315 123.549 672.561 123.795 672.561 124.098C672.561 124.401 672.315 124.646 672.012 124.646H667.622C667.319 124.646 667.073 124.401 667.073 124.098ZM669.817 127.207C670.12 127.207 670.366 127.453 670.366 127.756V129.403H669.268V127.756C669.268 127.453 669.514 127.207 669.817 127.207Z" fill="white"/>
</g>
<defs>
<linearGradient id="paint0_linear_1255_3048" x1="260.068" y1="0.515538" x2="309.504" y2="28.8976" gradientUnits="userSpaceOnUse">
<stop stop-color="#E875F2"/>
<stop offset="1" stop-color="#75ACFF"/>
</linearGradient>
<clipPath id="clip0_1255_3048">
<rect width="17.561" height="17.561" fill="white" transform="translate(91.2317 113.854)"/>
</clipPath>
<clipPath id="clip1_1255_3048">
<rect width="17.561" height="17.561" fill="white" transform="translate(223.232 113.854)"/>
</clipPath>
<clipPath id="clip2_1255_3048">
<rect width="24" height="24" fill="white" transform="translate(388.5 123)"/>
</clipPath>
<clipPath id="clip3_1255_3048">
<rect width="17.561" height="17.561" fill="white" transform="translate(531.232 113.854)"/>
</clipPath>
<clipPath id="clip4_1255_3048">
<rect width="17.561" height="17.561" fill="white" transform="translate(663.232 113.854)"/>
</clipPath>
</defs>
</svg>
