<svg width="current" height="current" viewBox="0 0 29 28" fill="none" xmlns="http://www.w3.org/2000/svg">
<g id="Outline / Video, Audio, Sound / Album">
<path id="Vector" fill-rule="evenodd" clip-rule="evenodd" d="M10.6494 1.45838C10.6653 1.45839 10.6815 1.45839 10.6979 1.45839H18.302C18.3184 1.45839 18.3346 1.45839 18.3506 1.45838C18.6071 1.45831 18.8037 1.45826 18.9756 1.47671C20.5555 1.64625 21.7647 2.9436 21.8381 4.51514C23.2879 4.948 24.3029 6.32909 24.232 7.88354C24.6969 8.09325 25.1086 8.38256 25.4607 8.7848C26.1799 9.6062 26.3995 10.6113 26.4079 11.7841C26.416 12.9177 26.2248 14.3518 25.9864 16.1394L25.5029 19.766C25.3166 21.1635 25.1658 22.2946 24.9313 23.1803C24.6873 24.1022 24.327 24.8665 23.651 25.4584C22.9749 26.0503 22.1697 26.3064 21.2236 26.4264C20.3147 26.5418 19.1736 26.5417 17.7637 26.5417H11.2363C9.82648 26.5417 8.68537 26.5418 7.77645 26.4264C6.83037 26.3064 6.02512 26.0503 5.34908 25.4584C4.67305 24.8665 4.31277 24.1022 4.06874 23.1803C3.83429 22.2946 3.6835 21.1635 3.49719 19.766L3.01364 16.1394C2.77527 14.3518 2.58403 12.9177 2.59217 11.7841C2.60059 10.6113 2.82018 9.6062 3.53932 8.7848C3.89149 8.38256 4.30317 8.09324 4.76802 7.88353C4.69716 6.32913 5.71206 4.94807 7.16183 4.51517C7.23519 2.94362 8.44443 1.64625 10.0243 1.47671C10.1962 1.45826 10.3929 1.45831 10.6494 1.45838ZM8.93756 4.37506H20.0624C19.9381 3.76409 19.4308 3.2856 18.7889 3.21672C18.7232 3.20967 18.6297 3.20839 18.302 3.20839H10.6979C10.3703 3.20839 10.2767 3.20967 10.211 3.21672C9.56913 3.2856 9.06183 3.76409 8.93756 4.37506ZM6.54442 7.42872C7.64382 7.29168 9.03966 7.2917 10.7599 7.29172H18.2402C19.9604 7.2917 21.3562 7.29168 22.4556 7.42872C22.3132 6.69757 21.6695 6.12506 20.8723 6.12506H8.1278C7.33053 6.12506 6.68685 6.69757 6.54442 7.42872ZM6.63088 9.18251C5.66909 9.31778 5.18262 9.5645 4.85599 9.93757C4.52936 10.3106 4.3491 10.8254 4.34212 11.7967C4.33497 12.7928 4.50783 14.1047 4.75737 15.9762L4.82354 16.4725L5.31519 16.1164C6.58392 15.1975 8.45848 15.2427 9.66502 16.2414L14.1429 19.9478C14.5661 20.2981 15.2954 20.3635 15.8217 20.0574L16.1329 19.8763C17.6218 19.0102 19.6173 19.1016 20.9912 20.125L23.415 21.9306C23.5344 21.2822 23.6415 20.4851 23.776 19.4762L24.2427 15.9762C24.4922 14.1047 24.6651 12.7928 24.6579 11.7967C24.651 10.8254 24.4707 10.3106 24.1441 9.93757C23.8174 9.5645 23.331 9.31778 22.3692 9.18251C21.3828 9.04377 20.0595 9.04173 18.1714 9.04173H10.8286C8.94054 9.04173 7.61728 9.04377 6.63088 9.18251ZM22.8624 23.7012L19.9457 21.5284C19.1493 20.9352 17.9128 20.8655 17.0129 21.389L16.7016 21.5701C15.5678 22.2296 14.0386 22.1332 13.027 21.2959L8.54917 17.5895C7.96818 17.1086 6.97543 17.0748 6.34168 17.5337L5.08627 18.443L5.22404 19.4762C5.42003 20.9461 5.55775 21.9666 5.76047 22.7325C5.95686 23.4744 6.188 23.867 6.50185 24.1417C6.8157 24.4165 7.23537 24.5937 7.99675 24.6904C8.78266 24.7901 9.81239 24.7917 11.2953 24.7917H17.7047C19.1877 24.7917 20.2174 24.7901 21.0033 24.6904C21.7647 24.5937 22.1844 24.4165 22.4982 24.1417C22.6337 24.0231 22.7539 23.8824 22.8624 23.7012ZM19.75 12.5417C19.2668 12.5417 18.875 12.9335 18.875 13.4167C18.875 13.9 19.2668 14.2917 19.75 14.2917C20.2333 14.2917 20.625 13.9 20.625 13.4167C20.625 12.9335 20.2333 12.5417 19.75 12.5417ZM17.125 13.4167C17.125 11.967 18.3003 10.7917 19.75 10.7917C21.1998 10.7917 22.375 11.967 22.375 13.4167C22.375 14.8665 21.1998 16.0417 19.75 16.0417C18.3003 16.0417 17.125 14.8665 17.125 13.4167Z" fill="current"/>
</g>
</svg>
