<svg width="current" height="current" viewBox="0 0 29 28" fill="none" xmlns="http://www.w3.org/2000/svg">
<g id="Bold / Video, Audio, Sound / Album">
<g id="Vector">
<path d="M20.9662 13.9624C20.9662 14.8488 20.2424 15.5674 19.3496 15.5674C18.4568 15.5674 17.7331 14.8488 17.7331 13.9624C17.7331 13.076 18.4568 12.3574 19.3496 12.3574C20.2424 12.3574 20.9662 13.076 20.9662 13.9624Z" fill="current"/>
<path fill-rule="evenodd" clip-rule="evenodd" d="M21.9942 8.48959C20.9572 8.34479 19.6207 8.34481 17.9549 8.34483H11.0451C9.37927 8.34481 8.04275 8.34479 7.0058 8.48959C5.93298 8.6394 5.03945 8.96087 4.37515 9.71421C3.71085 10.4676 3.50801 11.3894 3.50023 12.465C3.49272 13.5047 3.66937 14.82 3.88956 16.4595L4.33623 19.7856C4.50833 21.0673 4.64763 22.1047 4.8642 22.917C5.08962 23.7626 5.42242 24.4636 6.0469 25.0064C6.67138 25.5493 7.41523 25.7842 8.28916 25.8943C9.12875 26 10.1828 26 11.4852 26H17.5148C18.8172 26 19.8712 26 20.7108 25.8943C21.5848 25.7842 22.3286 25.5493 22.9531 25.0064C23.5776 24.4636 23.9104 23.7626 24.1358 22.917C24.3524 22.1047 24.4917 21.0673 24.6638 19.7856L25.1104 16.4595C25.3306 14.82 25.5073 13.5047 25.4998 12.465C25.492 11.3894 25.2891 10.4676 24.6248 9.71421C23.9605 8.96087 23.067 8.6394 21.9942 8.48959ZM7.23095 10.079C6.3425 10.203 5.89314 10.4293 5.59142 10.7715C5.28969 11.1136 5.12317 11.5858 5.11674 12.4766C5.11013 13.3901 5.26981 14.5933 5.50032 16.3098L5.56144 16.765L6.0156 16.4384C7.18757 15.5957 8.91918 15.6371 10.0337 16.553L14.1701 19.9524C14.561 20.2736 15.2347 20.3337 15.7208 20.0529L16.0084 19.8868C17.3837 19.0925 19.227 19.1763 20.4961 20.1149L22.7351 21.7709C22.8454 21.1762 22.9443 20.4451 23.0686 19.5199L23.4997 16.3098C23.7302 14.5933 23.8899 13.3901 23.8833 12.4766C23.8768 11.5858 23.7103 11.1136 23.4086 10.7715C23.1069 10.4293 22.6575 10.203 21.7691 10.079C20.8579 9.95172 19.6355 9.94984 17.8914 9.94984H11.1086C9.36447 9.94984 8.14213 9.95172 7.23095 10.079Z" fill="current"/>
<path d="M10.6608 2.00001H18.3389C18.5947 1.99994 18.7907 1.99989 18.9621 2.01818C20.1807 2.14822 21.1782 2.94749 21.6011 4.02411H7.39866C7.82163 2.94749 8.81905 2.14822 10.0377 2.01818C10.209 1.99989 10.4051 1.99994 10.6608 2.00001Z" fill="current"/>
<path d="M8.24152 5C6.71183 5 5.45754 6.00769 5.03896 7.34453C5.03024 7.3724 5.02187 7.40041 5.01387 7.42856C5.45184 7.28387 5.90764 7.18935 6.36905 7.12482C7.55747 6.95862 9.05934 6.9587 10.804 6.9588L10.9343 6.95881L18.3853 6.9588C20.1299 6.9587 21.6318 6.95862 22.8202 7.12482C23.2816 7.18935 23.7374 7.28387 24.1754 7.42856C24.1674 7.40041 24.159 7.3724 24.1503 7.34453C23.7317 6.00769 22.4774 5 20.9477 5H8.24152Z" fill="current"/>
</g>
</g>
</svg>
