<svg width="current" height="current" viewBox="0 0 36 36" fill="none" xmlns="http://www.w3.org/2000/svg">
<g id="Bold / Sports / Basketball">
<g id="Vector">
<path fill-rule="evenodd" clip-rule="evenodd" d="M10.5825 30.3974C8.53717 29.1763 6.76594 27.4313 5.4903 25.2218C4.21565 23.0141 3.59006 20.6097 3.55432 18.2297L3.76312 18.2708C8.02285 19.1097 12.8689 17.593 16.8522 15.1473C17.3761 14.8257 17.8897 14.4851 18.3894 14.1281C18.9863 14.8734 19.5207 15.6292 19.9513 16.375C20.4911 17.31 20.9794 18.4223 21.4158 19.6104C20.6686 19.972 19.94 20.3703 19.2379 20.7976C15.2052 23.2514 11.7648 26.8306 10.5831 30.3955L10.5825 30.3974ZM24.1529 31.0687C20.3903 32.8454 16.182 32.8566 12.5414 31.3738L12.6398 31.0772C13.5982 28.1858 16.5678 24.9585 20.3641 22.6485C20.9344 22.3015 21.517 21.979 22.1072 21.6843C22.4715 22.883 22.7871 24.0988 23.0535 25.2407C23.3991 26.722 23.6557 28.0498 23.8257 29.0068C23.9106 29.485 23.9738 29.8698 24.0156 30.134C24.0365 30.266 24.0521 30.3679 24.0623 30.4361L24.0737 30.5127L24.0764 30.5313L24.0771 30.5364L24.1529 31.0687Z" fill="current"/>
<path d="M24.1042 20.8058C26.8306 19.7674 29.6098 19.3684 32.0152 19.8961L32.3109 19.9609C32.1349 21.2382 31.7892 22.488 31.2834 23.6746C30.2371 26.129 28.5056 28.3128 26.1736 29.9096L26.1557 29.7953C26.112 29.5191 26.0465 29.1208 25.9589 28.6279C25.7839 27.6426 25.5199 26.2759 25.1635 24.7484C24.8761 23.5166 24.5242 22.1605 24.1042 20.8058Z" fill="current"/>
<path d="M20.0983 12.7963C22.5952 10.6741 24.5574 8.1583 25.4025 5.64737L25.4176 5.60241C27.4625 6.82349 29.2334 8.56825 30.5088 10.7774C31.7839 12.9859 32.4095 15.3913 32.4448 17.7722C29.5622 17.1491 26.398 17.6262 23.4086 18.753C22.9453 17.5056 22.4193 16.3165 21.8277 15.2917C21.3421 14.4506 20.7497 13.6117 20.0983 12.7963Z" fill="current"/>
<path d="M12.6826 5.65585C12.3185 5.36794 12.0221 5.14075 11.8156 4.98476L11.7833 4.96039C14.329 3.74335 17.0819 3.33734 19.7268 3.65794C21.0085 3.8133 22.2649 4.13929 23.46 4.62631L23.349 4.95628C22.6597 7.00443 20.9654 9.21832 18.6858 11.154C17.6308 10.0055 16.5181 8.9416 15.5043 8.03236C14.4106 7.05137 13.4101 6.23121 12.6826 5.65585Z" fill="current"/>
<path d="M15.7186 13.3009C11.9823 15.5948 7.70136 16.8381 4.18179 16.1449L3.68694 16.0475C4.22034 12.157 6.32824 8.52076 9.73999 6.14862L10.2137 6.49299L10.2166 6.49515L10.2301 6.50502L10.2865 6.5466C10.3368 6.58386 10.4121 6.63996 10.5096 6.71361C10.7047 6.86094 10.9883 7.07831 11.3386 7.3553C12.0397 7.90973 13.0045 8.70075 14.0576 9.64529C15.0107 10.5001 16.0187 11.4655 16.9638 12.483C16.5605 12.766 16.1448 13.0392 15.7186 13.3009Z" fill="current"/>
</g>
</g>
</svg>
