<svg width="current" height="current" viewBox="0 0 28 28" fill="none" xmlns="http://www.w3.org/2000/svg">
<g id="Bold / Arrows Action / Download Minimalistic">
<g id="Vector">
<path d="M14.6458 19.2571C14.48 19.4384 14.2457 19.5417 14 19.5417C13.7543 19.5417 13.52 19.4384 13.3542 19.2571L8.68756 14.1529C8.36148 13.7963 8.38626 13.2428 8.74291 12.9167C9.09956 12.5906 9.65303 12.6154 9.97911 12.9721L13.125 16.4129V3.5C13.125 3.01675 13.5168 2.625 14 2.625C14.4833 2.625 14.875 3.01675 14.875 3.5V16.4129L18.0209 12.9721C18.347 12.6154 18.9004 12.5906 19.2571 12.9167C19.6137 13.2428 19.6385 13.7963 19.3124 14.1529L14.6458 19.2571Z" fill="current"/>
<path d="M4.375 17.5C4.375 17.0168 3.98325 16.625 3.5 16.625C3.01675 16.625 2.625 17.0168 2.625 17.5V17.564C2.62498 19.1595 2.62496 20.4456 2.76095 21.457C2.90213 22.5072 3.20417 23.3914 3.90641 24.0936C4.60865 24.7958 5.49283 25.0979 6.54296 25.2391C7.55442 25.375 8.84046 25.375 10.436 25.375H17.564C19.1595 25.375 20.4456 25.375 21.457 25.2391C22.5072 25.0979 23.3914 24.7958 24.0936 24.0936C24.7958 23.3914 25.0979 22.5072 25.2391 21.457C25.375 20.4456 25.375 19.1595 25.375 17.564V17.5C25.375 17.0168 24.9833 16.625 24.5 16.625C24.0168 16.625 23.625 17.0168 23.625 17.5C23.625 19.1747 23.6231 20.3426 23.5047 21.2239C23.3896 22.0799 23.1791 22.5333 22.8562 22.8562C22.5333 23.179 22.0799 23.3896 21.2239 23.5047C20.3426 23.6231 19.1747 23.625 17.5 23.625H10.5C8.82535 23.625 7.65738 23.6231 6.77614 23.5047C5.92007 23.3896 5.46674 23.179 5.14385 22.8562C4.82096 22.5333 4.61044 22.0799 4.49534 21.2239C4.37686 20.3426 4.375 19.1747 4.375 17.5Z" fill="current"/>
</g>
</g>
</svg>
