<svg width="119" height="90" viewBox="0 0 119 90" fill="none" xmlns="http://www.w3.org/2000/svg">
<path fill-rule="evenodd" clip-rule="evenodd" d="M16.1 37.487C13.9952 25.9006 21.6815 14.8016 33.268 12.6967L34.9876 12.3843C41.789 11.1487 48.4224 13.287 53.1672 17.6076C56.0892 11.8943 61.5466 7.55961 68.3479 6.32403L70.0675 6.01163C81.654 3.90673 92.753 11.593 94.8578 23.1794C94.9418 23.6416 95.0102 24.103 95.0634 24.5631L95.1078 24.5551L101.752 61.1304C102.051 62.7736 100.961 64.3477 99.3174 64.6463L67.7074 70.3888C67.6973 70.3907 67.6871 70.3926 67.677 70.3945L57.8073 72.1875C57.7915 72.1904 57.7757 72.1931 57.7599 72.1957L26.5102 77.8728C24.867 78.1713 23.2929 77.0812 22.9944 75.438L16.3499 38.8627L16.3943 38.8546C16.2823 38.4052 16.184 37.9492 16.1 37.487Z" fill="white"/>
<path d="M25.5945 63.2034C25.9922 62.6844 26.1524 62.0041 25.8628 61.418C25.3644 60.4095 24.3858 59.2462 22.758 58.8814C22.0306 58.7184 21.3348 59.1482 20.9263 59.7717M60.995 46.0298C62.3752 53.6274 68.4984 58.8774 74.6715 57.7559C80.8446 56.6344 84.73 49.5662 83.3498 41.9686M33.1367 51.0903C31.7564 43.4927 35.6418 36.4245 41.815 35.303M45.8931 48.9499C46.5659 52.6537 44.2628 56.1738 40.7489 56.8122C37.2349 57.4505 33.8409 54.9655 33.168 51.2616C32.4952 47.5578 34.7983 44.0377 38.3122 43.3994M25.7259 60.0932L27.4455 59.7808C34.2469 58.5452 40.8803 60.6835 45.6251 65.004M60.8058 53.7205L62.5254 53.4081M33.268 12.6967C21.6815 14.8016 13.9952 25.9006 16.1 37.487C16.184 37.9492 16.2823 38.4052 16.3943 38.8546L16.3499 38.8627L22.9944 75.438C23.2929 77.0812 24.867 78.1713 26.5102 77.8728L57.7599 72.1957C57.7757 72.1931 57.7915 72.1904 57.8073 72.1875L67.677 70.3945C67.6871 70.3926 67.6973 70.3907 67.7074 70.3888L99.3174 64.6463C100.961 64.3477 102.051 62.7736 101.752 61.1304L95.1078 24.5551L95.0634 24.5631C95.0102 24.103 94.9418 23.6416 94.8578 23.1794C92.753 11.593 81.654 3.90673 70.0675 6.01163L68.3479 6.32403C61.5466 7.55961 56.0892 11.8943 53.1672 17.6076C48.4224 13.287 41.789 11.1487 34.9876 12.3843L33.268 12.6967ZM61.026 46.2013C61.6989 49.9051 65.0929 52.3902 68.6068 51.7518C72.1208 51.1134 74.4239 47.5934 73.751 43.8895C73.0782 40.1857 69.6841 37.7006 66.1702 38.339C62.6563 38.9773 60.3531 42.4974 61.026 46.2013Z" stroke="white" stroke-width="8.62561"/>
<path fill-rule="evenodd" clip-rule="evenodd" d="M16.0104 37.3611C13.9056 25.7747 21.5919 14.6757 33.1784 12.5708L34.898 12.2584C41.6994 11.0228 48.3328 13.1611 53.0776 17.4816C55.9996 11.7684 61.457 7.43363 68.2583 6.19804L69.9779 5.88565C81.5644 3.78075 92.6634 11.4671 94.7682 23.0535C94.8522 23.5157 94.9206 23.9771 94.9738 24.4372L95.0181 24.4291L101.663 61.0045C101.961 62.6477 100.871 64.2218 99.2278 64.5203L67.6178 70.2629C67.6077 70.2648 67.5975 70.2667 67.5874 70.2686L57.7177 72.0616C57.7019 72.0644 57.6861 72.0672 57.6703 72.0698L26.4206 77.7469C24.7774 78.0454 23.2033 76.9553 22.9048 75.3121L16.2603 38.7367L16.3047 38.7287C16.1927 38.2793 16.0944 37.8233 16.0104 37.3611Z" fill="#CFCFCF"/>
<path d="M60.9059 45.9011C62.2861 53.4987 68.4093 58.7487 74.5824 57.6272C80.7556 56.5058 84.641 49.4376 83.2607 41.8399C81.8805 34.2423 75.7573 28.9923 69.5842 30.1138C63.4111 31.2353 59.5257 38.3035 60.9059 45.9011Z" fill="white"/>
<path d="M60.9347 46.073C61.6075 49.7769 65.0016 52.2619 68.5155 51.6236C72.0294 50.9852 74.3326 47.4651 73.6597 43.7613C72.9869 40.0574 69.5928 37.5724 66.0789 38.2108C62.565 38.8491 60.2618 42.3692 60.9347 46.073Z" fill="#1F1614"/>
<path d="M33.0585 50.9621C34.4387 58.5598 40.5619 63.8097 46.735 62.6883C52.9081 61.5668 56.7935 54.4986 55.4133 46.901C54.0331 39.3033 47.9099 34.0534 41.7368 35.1748C35.5636 36.2963 31.6782 43.3645 33.0585 50.9621Z" fill="white"/>
<path d="M33.087 51.1346C33.7599 54.8385 37.1539 57.3235 40.6679 56.6852C44.1818 56.0468 46.4849 52.5267 45.8121 48.8229C45.1392 45.1191 41.7451 42.634 38.2312 43.2724C34.7173 43.9107 32.4142 47.4308 33.087 51.1346Z" fill="#1F1614"/>
<path fill-rule="evenodd" clip-rule="evenodd" d="M16.4596 38.3454C14.3548 26.759 22.0411 15.66 33.6276 13.5551L35.3472 13.2428C42.1486 12.0072 48.782 14.1454 53.5268 18.466C56.4488 12.7528 61.9062 8.41801 68.7075 7.18243L70.4271 6.87003C82.0136 4.76514 93.1126 12.4514 95.2175 24.0378C95.3014 24.5 95.3698 24.9615 95.423 25.4216L95.4674 25.4135L102.112 61.9889C102.41 63.6321 101.32 65.2062 99.677 65.5047L68.0671 71.2472C68.0569 71.2492 68.0468 71.2511 68.0366 71.2529L58.1669 73.0459C58.1511 73.0488 58.1353 73.0515 58.1195 73.0542L26.8699 78.7312C25.2266 79.0298 23.6525 77.9397 23.354 76.2964L16.7095 39.7211L16.7539 39.7131C16.6419 39.2636 16.5436 38.8076 16.4596 38.3454Z" fill="#CFCFCF"/>
<path d="M61.3573 46.8928C62.7375 54.4904 68.8607 59.7404 75.0338 58.6189C81.2069 57.4975 85.0923 50.4293 83.7121 42.8316C82.3319 35.234 76.2087 29.984 70.0356 31.1055C63.8625 32.2269 59.9771 39.2952 61.3573 46.8928Z" fill="white"/>
<path d="M61.2569 43.1454C61.9298 46.8492 65.3239 49.3343 68.8378 48.6959C72.3517 48.0575 74.6549 44.5375 73.982 40.8336C73.3091 37.1298 69.9151 34.6447 66.4011 35.2831C62.8872 35.9215 60.5841 39.4415 61.2569 43.1454Z" fill="#1F1614"/>
<path d="M33.5055 51.9519C34.8857 59.5495 41.0089 64.7995 47.1821 63.678C53.3552 62.5566 57.2406 55.4883 55.8603 47.8907C54.4801 40.2931 48.3569 35.0431 42.1838 36.1646C36.0107 37.286 32.1253 44.3543 33.5055 51.9519Z" fill="white"/>
<path d="M33.4815 48.0355C34.1543 51.7394 37.5484 54.2244 41.0623 53.5861C44.5762 52.9477 46.8794 49.4276 46.2065 45.7238C45.5336 42.0199 42.1396 39.5349 38.6257 40.1732C35.1117 40.8116 32.8086 44.3317 33.4815 48.0355Z" fill="#1F1614"/>
<path fill-rule="evenodd" clip-rule="evenodd" d="M55.3751 54.276C56.6121 53.3303 58.2964 52.9726 60.2086 53.4574C60.9394 53.6427 61.3817 54.3854 61.1964 55.1162C61.0111 55.847 60.2684 56.2892 59.5376 56.104C58.3409 55.8005 57.5349 56.0616 57.0333 56.445C56.5008 56.8522 56.1862 57.4907 56.1541 58.1392C56.1226 58.7728 56.3592 59.3539 56.8638 59.7416C57.2088 60.0067 57.7715 60.2501 58.6359 60.2886C59.1839 60.1626 59.7843 60.1159 60.4348 60.1669C61.1215 60.2208 61.6605 60.7778 61.6917 61.4659C61.723 62.154 61.2367 62.7576 60.5578 62.8736C60.0276 62.9641 59.5202 63.013 59.0372 63.0218C57.852 63.4213 57.2632 64.5858 57.3688 65.6432C57.4317 66.2736 57.7382 66.7396 58.2566 66.9758C58.8166 67.231 59.9161 67.3496 61.7802 66.5842C62.4776 66.2978 63.2751 66.631 63.5615 67.3284C63.8479 68.0259 63.5147 68.8234 62.8173 69.1098C60.5719 70.0318 58.63 70.1462 57.1246 69.4603C55.5777 68.7555 54.7947 67.3437 54.652 65.9144C54.528 64.6717 54.888 63.3173 55.6837 62.2334C55.515 62.1335 55.3538 62.0245 55.2002 61.9064C53.9033 60.9099 53.3567 59.4238 53.4271 58.004C53.4968 56.5991 54.169 55.1981 55.3751 54.276Z" fill="#A6A6A6"/>
</svg>
