<svg width="119" height="90" viewBox="0 0 119 90" fill="none" xmlns="http://www.w3.org/2000/svg">
<path fill-rule="evenodd" clip-rule="evenodd" d="M16.0999 37.4868C13.9951 25.9004 21.6814 14.8014 33.2679 12.6965L34.9875 12.3841C41.7889 11.1485 48.4223 13.2868 53.1671 17.6074C56.0891 11.8941 61.5465 7.55939 68.3478 6.32381L70.0674 6.01141C81.6539 3.90651 92.7529 11.5928 94.8577 23.1792C94.9417 23.6414 95.0101 24.1028 95.0633 24.5629L95.1077 24.5549L101.752 61.1302C102.051 62.7734 100.961 64.3475 99.3173 64.6461L67.7073 70.3886C67.6972 70.3905 67.687 70.3924 67.6769 70.3943L57.8072 72.1873C57.7914 72.1902 57.7756 72.1929 57.7598 72.1955L26.5101 77.8726C24.8669 78.1711 23.2928 77.081 22.9943 75.4378L16.3498 38.8625L16.3942 38.8544C16.2822 38.405 16.1839 37.949 16.0999 37.4868Z" fill="white"/>
<path d="M25.5944 63.2032C25.9921 62.6842 26.1523 62.0039 25.8627 61.4178C25.3643 60.4093 24.3857 59.246 22.7579 58.8812C22.0305 58.7182 21.3347 59.148 20.9262 59.7715M60.9949 46.0296C62.3751 53.6272 68.4983 58.8772 74.6714 57.7557C80.8445 56.6342 84.7299 49.566 83.3497 41.9684M33.1366 51.0901C31.7563 43.4925 35.6417 36.4243 41.8149 35.3028M45.893 48.9497C46.5658 52.6535 44.2627 56.1736 40.7488 56.812C37.2348 57.4503 33.8408 54.9653 33.1679 51.2614C32.4951 47.5576 34.7982 44.0375 38.3121 43.3992M25.7258 60.093L27.4454 59.7806C34.2468 58.545 40.8802 60.6833 45.625 65.0038M60.8057 53.7203L62.5253 53.4079M33.2679 12.6965C21.6814 14.8014 13.9951 25.9004 16.0999 37.4868C16.1839 37.949 16.2822 38.405 16.3942 38.8544L16.3498 38.8625L22.9943 75.4378C23.2928 77.081 24.8669 78.1711 26.5101 77.8726L57.7598 72.1955C57.7756 72.1929 57.7914 72.1902 57.8072 72.1873L67.6769 70.3943C67.687 70.3924 67.6972 70.3905 67.7073 70.3886L99.3173 64.6461C100.961 64.3475 102.051 62.7734 101.752 61.1302L95.1077 24.5549L95.0633 24.5629C95.0101 24.1028 94.9417 23.6414 94.8577 23.1792C92.7529 11.5928 81.6539 3.90651 70.0674 6.01141L68.3478 6.32381C61.5465 7.55939 56.0891 11.8941 53.1671 17.6074C48.4223 13.2868 41.7889 11.1485 34.9875 12.3841L33.2679 12.6965ZM61.0259 46.2011C61.6988 49.9049 65.0928 52.39 68.6067 51.7516C72.1207 51.1132 74.4238 47.5932 73.7509 43.8893C73.0781 40.1855 69.684 37.7004 66.1701 38.3388C62.6562 38.9771 60.353 42.4972 61.0259 46.2011Z" stroke="white" stroke-width="8.62561"/>
<path fill-rule="evenodd" clip-rule="evenodd" d="M16.0104 37.3611C13.9056 25.7747 21.5919 14.6757 33.1784 12.5708L34.898 12.2584C41.6994 11.0228 48.3328 13.1611 53.0776 17.4816C55.9996 11.7684 61.457 7.43366 68.2583 6.19807L69.9779 5.88568C81.5644 3.78078 92.6634 11.4671 94.7682 23.0535C94.8522 23.5157 94.9206 23.9771 94.9738 24.4372L95.0181 24.4291L101.663 61.0045C101.961 62.6477 100.871 64.2218 99.2278 64.5203L67.6178 70.2629C67.6077 70.2648 67.5975 70.2667 67.5874 70.2686L57.7177 72.0616C57.7019 72.0644 57.6861 72.0672 57.6703 72.0698L26.4206 77.7469C24.7774 78.0454 23.2033 76.9553 22.9048 75.3121L16.2603 38.7367L16.3047 38.7287C16.1927 38.2793 16.0944 37.8233 16.0104 37.3611Z" fill="#CFCFCF"/>
<path d="M60.906 45.9009C62.2862 53.4985 68.4094 58.7485 74.5825 57.627C80.7557 56.5056 84.6411 49.4374 83.2608 41.8397C81.8806 34.2421 75.7574 28.9921 69.5843 30.1136C63.4112 31.2351 59.5258 38.3033 60.906 45.9009Z" fill="white"/>
<path d="M60.9347 46.0728C61.6075 49.7767 65.0016 52.2617 68.5155 51.6234C72.0294 50.985 74.3326 47.4649 73.6597 43.7611C72.9869 40.0572 69.5928 37.5722 66.0789 38.2106C62.565 38.8489 60.2618 42.369 60.9347 46.0728Z" fill="#1F1614"/>
<path d="M33.0584 50.9619C34.4386 58.5596 40.5618 63.8095 46.7349 62.6881C52.908 61.5666 56.7934 54.4984 55.4132 46.9008C54.033 39.3031 47.9098 34.0532 41.7367 35.1746C35.5635 36.2961 31.6781 43.3643 33.0584 50.9619Z" fill="white"/>
<path d="M33.087 51.1348C33.7599 54.8387 37.1539 57.3237 40.6679 56.6854C44.1818 56.047 46.4849 52.5269 45.8121 48.8231C45.1392 45.1193 41.7452 42.6342 38.2312 43.2726C34.7173 43.9109 32.4142 47.431 33.087 51.1348Z" fill="#1F1614"/>
<path fill-rule="evenodd" clip-rule="evenodd" d="M16.4596 38.3454C14.3548 26.759 22.0411 15.66 33.6276 13.5551L35.3472 13.2428C42.1486 12.0072 48.7821 14.1454 53.5268 18.466C56.4488 12.7528 61.9062 8.41803 68.7075 7.18245L70.4271 6.87005C82.0136 4.76516 93.1126 12.4514 95.2175 24.0378C95.3014 24.5 95.3698 24.9615 95.423 25.4216L95.4674 25.4135L102.112 61.9889C102.41 63.6321 101.32 65.2062 99.677 65.5047L68.0671 71.2472C68.0569 71.2492 68.0468 71.2511 68.0366 71.2529L58.1669 73.0459C58.1511 73.0488 58.1353 73.0515 58.1195 73.0542L26.8698 78.7312C25.2266 79.0298 23.6525 77.9397 23.354 76.2964L16.7095 39.7211L16.7539 39.7131C16.6419 39.2636 16.5436 38.8076 16.4596 38.3454Z" fill="#CFCFCF"/>
<path d="M61.3572 46.8926C62.7374 54.4902 68.8606 59.7402 75.0337 58.6187C81.2068 57.4973 85.0922 50.4291 83.712 42.8314C82.3318 35.2338 76.2086 29.9838 70.0355 31.1053C63.8624 32.2267 59.977 39.295 61.3572 46.8926Z" fill="white"/>
<path d="M61.2569 43.1456C61.9298 46.8494 65.3239 49.3345 68.8378 48.6961C72.3517 48.0577 74.6549 44.5377 73.982 40.8338C73.3091 37.13 69.9151 34.6449 66.4011 35.2833C62.8872 35.9217 60.5841 39.4417 61.2569 43.1456Z" fill="#1F1614"/>
<path d="M33.5056 51.9517C34.8858 59.5493 41.009 64.7993 47.1822 63.6778C53.3553 62.5564 57.2407 55.4881 55.8604 47.8905C54.4802 40.2929 48.357 35.0429 42.1839 36.1644C36.0108 37.2858 32.1254 44.3541 33.5056 51.9517Z" fill="white"/>
<path d="M33.4815 48.0357C34.1544 51.7396 37.5485 54.2246 41.0624 53.5863C44.5763 52.9479 46.8795 49.4278 46.2066 45.724C45.5337 42.0201 42.1397 39.5351 38.6258 40.1734C35.1118 40.8118 32.8087 44.3319 33.4815 48.0357Z" fill="#1F1614"/>
<path d="M59.8731 54.7808C53.6553 53.2043 52.3859 62.884 60.328 61.528C54.4056 61.0633 54.0799 71.222 62.2987 67.8471" stroke="#A6A6A6" stroke-width="2.73026" stroke-linecap="round" stroke-linejoin="round"/>
</svg>
