<svg width="217" height="134" viewBox="0 0 217 134" fill="none" xmlns="http://www.w3.org/2000/svg">
<path fill-rule="evenodd" clip-rule="evenodd" d="M185 58.0458C185 36.8612 167.826 19.6877 146.642 19.6877H143.498C131.062 19.6877 120.009 25.6054 113 34.7783C105.991 25.6054 94.9377 19.6878 82.5022 19.6878H79.3581C58.1735 19.6878 41 36.8613 41 58.0458C41 58.8909 41.0273 59.7296 41.0812 60.5611H41V132.876L98.8515 132.876L111.428 132.876L127.777 132.876L185 132.875V60.5611H184.919C184.973 59.7296 185 58.8909 185 58.0458Z" fill="#28CB86"/>
<ellipse cx="87.8471" cy="87.6005" rx="20.4367" ry="25.1528" fill="white"/>
<ellipse cx="96.6506" cy="87.915" rx="11.6332" ry="12.262" fill="#1F1614"/>
<ellipse cx="138.782" cy="87.6006" rx="20.4367" ry="25.1528" fill="white"/>
<ellipse cx="147.585" cy="87.9151" rx="11.6332" ry="12.262" fill="#1F1614"/>
<rect x="69" y="64.0455" width="33" height="8" rx="4" transform="rotate(-11.1064 69 64.0455)" fill="#A7E1C2"/>
<rect x="124.618" y="57.6877" width="33" height="8" rx="4" transform="rotate(11.11 124.618 57.6877)" fill="#A7E1C2"/>
<path d="M75.9847 107.688C76.2481 107.726 76.6289 107.913 76.9972 108.247L84.225 112.236C81.8014 114.36 83.9739 114.36 84.4586 119.883C84.9434 125.405 80 127.188 77.1573 125.405C74.7908 123.921 74.2795 119.157 77.1878 114.06C78.8824 111.089 77.9846 109.141 76.9972 108.247L75.9847 107.688Z" fill="white"/>
<path d="M14.5715 52.4453C14.478 50.1639 15.1827 48.2294 16.6857 46.6419C18.1886 45.0543 20.1057 44.2125 22.4371 44.1163C23.4696 44.074 24.5116 44.2648 25.5632 44.6888C26.6147 45.1128 27.6294 45.655 28.6073 46.3155C29.5852 46.9761 30.5071 47.6973 31.3732 48.4791C32.2393 49.261 32.9947 49.989 33.6395 50.6632C33.7782 50.7909 33.8801 50.9412 33.9452 51.114C34.0103 51.2868 34.047 51.4645 34.0551 51.647C34.0633 51.8295 34.0413 52.0099 33.9892 52.1881C33.9372 52.3664 33.8479 52.5242 33.7214 52.6615C33.1339 53.3862 32.4405 54.1735 31.6413 55.0236C30.8421 55.8737 29.9823 56.6679 29.0617 57.4062C28.1412 58.1445 27.1742 58.768 26.1609 59.2766C25.1475 59.7851 24.1246 60.0606 23.0921 60.1029C20.7607 60.1984 18.7812 59.5165 17.1534 58.0573C15.5256 56.598 14.665 54.7274 14.5715 52.4453ZM17.5802 52.5972C17.6051 52.7964 17.6913 52.964 17.839 53.1001C17.9867 53.2361 18.1601 53.2998 18.3593 53.2909C18.5924 53.2814 18.7765 53.1988 18.9116 53.0431C19.0467 52.8874 19.1014 52.6934 19.0759 52.4609C18.998 51.7802 19.1555 51.0481 19.5484 50.2647C19.9413 49.4813 20.6919 48.9668 21.8001 48.7212C21.9819 48.6804 22.1282 48.587 22.239 48.441C22.3498 48.295 22.4014 48.1301 22.3939 47.9463C22.3843 47.7131 22.2889 47.5252 22.1075 47.3825C21.9262 47.2398 21.7203 47.1982 21.4899 47.2577C19.9861 47.6029 18.931 48.3134 18.3245 49.3891C17.718 50.4648 17.4699 51.5342 17.5802 52.5972Z" fill="#8EC6FA"/>
<g clip-path="url(#clip0_1489_4471)">
<path d="M14.6378 16.73C16.9201 13.9971 19.7609 12.5012 23.16 12.2424C26.5591 11.9835 29.6554 13.0198 32.4488 15.3514C33.6856 16.3843 34.6891 17.6964 35.4594 19.2879C36.2297 20.8793 36.8336 22.5687 37.2709 24.3561C37.7082 26.1435 38.0174 27.9425 38.1985 29.7529C38.3796 31.5633 38.4893 33.1957 38.5277 34.6499C38.554 34.9427 38.5143 35.2231 38.4084 35.4909C38.3026 35.7587 38.1588 36.0023 37.977 36.2216C37.7952 36.4409 37.5808 36.6262 37.3339 36.7776C37.087 36.9289 36.8185 37.0176 36.5286 37.0436C35.0908 37.2651 33.4651 37.448 31.6513 37.5925C29.8376 37.737 28.0124 37.7533 26.1757 37.6415C24.3389 37.5298 22.5689 37.2367 20.8657 36.7624C19.1624 36.288 17.6924 35.5344 16.4556 34.5015C13.6629 32.1692 12.091 29.3076 11.7399 25.9167C11.3888 22.5259 12.3547 19.4636 14.6378 16.73ZM17.9535 20.0578C17.7736 20.3138 17.6976 20.5978 17.7256 20.9097C17.7536 21.2216 17.8873 21.4768 18.1265 21.6752C18.4058 21.9085 18.705 22.0059 19.0241 21.9677C19.3432 21.9294 19.6097 21.7627 19.8238 21.4674C20.447 20.5996 21.3959 19.9191 22.6705 19.4259C23.9452 18.9328 25.3511 19.125 26.8883 20.0025C27.1411 20.1458 27.4079 20.1912 27.6888 20.1387C27.9697 20.0861 28.2021 19.9498 28.386 19.7295C28.6193 19.4503 28.7059 19.1332 28.646 18.7784C28.5861 18.4237 28.3919 18.1599 28.0635 17.9872C25.965 16.8103 24.002 16.5253 22.1744 17.1323C20.3469 17.7393 18.94 18.7145 17.9535 20.0578Z" fill="#65B5FF"/>
</g>
<defs>
<clipPath id="clip0_1489_4471">
<rect width="37.4252" height="37.4252" fill="white" transform="translate(52.9641 24.3579) rotate(129.867)"/>
</clipPath>
</defs>
</svg>
