<svg width="current" height="current" viewBox="0 0 36 36" fill="none" xmlns="http://www.w3.org/2000/svg">
<g id="Bold / Nature, Travel / Fire">
<path id="Vector" d="M19.2023 32.1571C23.7176 31.252 29.5556 28.0039 29.5556 19.6047C29.5556 11.9613 23.9608 6.87152 19.9378 4.53284C19.0451 4.0139 18 4.69637 18 5.72894V8.37008C18 10.4528 17.1243 14.2543 14.6912 15.8356C13.449 16.6428 12.1074 15.4346 11.9564 13.9608L11.8325 12.7506C11.6884 11.3437 10.2555 10.4896 9.13105 11.3474C7.11101 12.8884 5 15.5868 5 19.6047C5 29.8763 12.6395 32.4442 16.4593 32.4442C16.6814 32.4442 16.9149 32.4375 17.158 32.4235C15.2719 32.2623 12.2222 31.0921 12.2222 27.308C12.2222 24.3478 14.3818 22.3452 16.0226 21.3718C16.4639 21.11 16.9804 21.4499 16.9804 21.963V22.8141C16.9804 23.4655 17.2323 24.4836 17.8319 25.1805C18.5104 25.9692 19.5064 25.143 19.5867 24.1057C19.6121 23.7785 19.9412 23.57 20.2246 23.7356C21.1509 24.277 22.3333 25.4335 22.3333 27.308C22.3333 30.2662 20.7026 31.627 19.2023 32.1571Z" fill="current"/>
</g>
</svg>
