<svg width="current" height="current" viewBox="0 0 56 56" fill="none" xmlns="http://www.w3.org/2000/svg">
<g id="Outline / Video, Audio, Sound / Gallery Add">
<g id="Vector">
<path fill-rule="evenodd" clip-rule="evenodd" d="M43.1665 2.91675C44.133 2.91675 44.9165 3.70025 44.9165 4.66675V11.0834H51.3332C52.2997 11.0834 53.0832 11.8669 53.0832 12.8334C53.0832 13.7999 52.2997 14.5834 51.3332 14.5834H44.9165V21.0001C44.9165 21.9666 44.133 22.7501 43.1665 22.7501C42.2 22.7501 41.4165 21.9666 41.4165 21.0001V14.5834H34.9998C34.0333 14.5834 33.2498 13.7999 33.2498 12.8334C33.2498 11.8669 34.0333 11.0834 34.9998 11.0834H41.4165V4.66675C41.4165 3.70025 42.2 2.91675 43.1665 2.91675Z" fill="current"/>
<path fill-rule="evenodd" clip-rule="evenodd" d="M27.9998 2.91675L27.866 2.91675C22.4797 2.91672 18.2586 2.91669 14.9652 3.35949C11.5941 3.81272 8.93405 4.75851 6.84616 6.8464C4.75827 8.93429 3.81247 11.5943 3.35925 14.9654C2.91645 18.2589 2.91647 22.4799 2.9165 27.8662V28.134C2.91647 33.5202 2.91645 37.7413 3.35925 41.0348C3.81247 44.4058 4.75827 47.0659 6.84616 49.1538C8.93405 51.2417 11.5941 52.1875 14.9652 52.6407C18.2586 53.0835 22.4797 53.0835 27.866 53.0834H28.1337C33.52 53.0835 37.7411 53.0835 41.0345 52.6407C44.4056 52.1875 47.0656 51.2417 49.1535 49.1538C51.2414 47.0659 52.1872 44.4058 52.6404 41.0348C53.0832 37.7413 53.0832 33.5202 53.0832 28.134V28.0001C53.0832 27.0336 52.2997 26.2501 51.3332 26.2501C50.3667 26.2501 49.5832 27.0336 49.5832 28.0001C49.5832 33.5493 49.5795 37.5351 49.1716 40.5684C49.1556 40.6881 49.1389 40.8058 49.1216 40.9217L42.649 35.0963C39.617 32.3675 35.1017 32.0958 31.7643 34.4412L31.0686 34.9302C29.9089 35.7452 28.3313 35.6085 27.3291 34.6063L17.3197 24.597C14.6705 21.9477 10.4208 21.8062 7.60116 24.2734L6.41878 25.3079C6.4294 21.126 6.4894 17.9505 6.82804 15.4318C7.22908 12.4488 7.99183 10.6505 9.32103 9.32127C10.6502 7.99208 12.4486 7.22933 15.4315 6.82828C18.4648 6.42047 22.4506 6.41675 27.9998 6.41675C28.9663 6.41675 29.7498 5.63325 29.7498 4.66675C29.7498 3.70025 28.9663 2.91675 27.9998 2.91675ZM6.82804 40.5684C7.22908 43.5513 7.99183 45.3497 9.32103 46.6789C10.6502 48.0081 12.4486 48.7708 15.4315 49.1719C18.4648 49.5797 22.4506 49.5834 27.9998 49.5834C33.549 49.5834 37.5349 49.5797 40.5682 49.1719C43.5511 48.7708 45.3494 48.0081 46.6786 46.6789C47.2469 46.1106 47.7116 45.4567 48.0888 44.661C47.998 44.6056 47.9111 44.541 47.8292 44.4673L40.3076 37.6978C38.4884 36.0606 35.7792 35.8975 33.7768 37.3048L33.081 37.7938C30.5299 39.5867 27.0591 39.2861 24.8542 37.0812L14.8449 27.0718C13.4985 25.7255 11.3389 25.6536 9.90592 26.9074L6.41739 29.9598C6.42341 34.5064 6.46991 37.9047 6.82804 40.5684Z" fill="current"/>
</g>
</g>
</svg>
