<svg width="28" height="28" viewBox="0 0 28 28" fill="none" xmlns="http://www.w3.org/2000/svg">
<path fill-rule="evenodd" clip-rule="evenodd" d="M19.9979 2.76943C18.9195 2.62496 17.5466 2.62498 15.8351 2.625H11.9601C10.2486 2.62498 8.87568 2.62496 7.79734 2.76943C6.68066 2.91904 5.74963 3.23781 5.01119 3.97367C4.24092 4.74125 3.92555 5.71803 3.78341 6.8951L3.77646 6.95268L3.77924 7.1806C3.53167 7.34243 3.2991 7.53014 3.08113 7.74812C2.20803 8.62121 1.82056 9.72832 1.63667 11.0961C1.45797 12.4252 1.45799 14.1235 1.45801 16.2675V16.3992L1.45809 16.904C1.45924 18.7993 1.47302 20.3534 1.63667 21.5705C1.82056 22.9384 2.20803 24.0455 3.08113 24.9186C3.95422 25.7916 5.06132 26.1791 6.42915 26.363C7.75823 26.5417 9.45647 26.5417 11.6005 26.5417H16.3988C18.5429 26.5417 20.2411 26.5417 21.5702 26.363C22.938 26.1791 24.0451 25.7916 24.9182 24.9186C25.7913 24.0455 26.1788 22.9384 26.3627 21.5705C26.5414 20.2414 26.5414 18.5432 26.5413 16.3991V16.2675C26.5414 14.1235 26.5414 12.4252 26.3627 11.0961C26.1788 9.72832 25.7913 8.62121 24.9182 7.74812C24.6419 7.4718 24.3421 7.24412 24.0181 7.05614V6.94736L24.0118 6.8951C23.8696 5.71803 23.5543 4.74125 22.784 3.97367C22.0456 3.23781 21.1145 2.91904 19.9979 2.76943ZM3.20871 17.3133C3.21233 19.0342 3.23461 20.3225 3.37106 21.3373C3.52887 22.5111 3.82482 23.1874 4.31856 23.6811C4.81231 24.1749 5.48856 24.4708 6.66233 24.6286C7.86127 24.7898 9.44172 24.7917 11.6663 24.7917H16.333C18.5576 24.7917 20.1381 24.7898 21.337 24.6286C22.2285 24.5088 22.8329 24.3092 23.2884 24.0039L20.1535 21.1825C19.244 20.3639 17.8894 20.2823 16.8882 20.986L16.5403 21.2305C15.2647 22.1269 13.5293 21.9766 12.4269 20.8742L7.42219 15.8695C6.74901 15.1963 5.66919 15.1604 4.95271 15.7873L3.20871 17.3133ZM21.3242 19.8817L24.3438 22.5993C24.4673 22.2538 24.5605 21.8415 24.6283 21.3373C24.7895 20.1384 24.7913 18.558 24.7913 16.3333C24.7913 14.1087 24.7895 12.5283 24.6283 11.3293C24.4705 10.1556 24.1745 9.4793 23.6808 8.98556C23.187 8.49181 22.5108 8.19586 21.337 8.03805C20.1381 7.87686 18.5576 7.875 16.333 7.875H11.6663C9.44172 7.875 7.86127 7.87686 6.66233 8.03805C5.48856 8.19586 4.81231 8.49181 4.31856 8.98556C3.82482 9.4793 3.52887 10.1556 3.37106 11.3293C3.24447 12.2709 3.21615 13.4477 3.20982 14.987L3.80034 14.4703C5.21016 13.2367 7.33498 13.3074 8.65963 14.6321L13.6643 19.6367C14.1654 20.1379 14.9542 20.2062 15.534 19.7987L15.8819 19.5542C17.5506 18.3815 19.8082 18.5173 21.3242 19.8817ZM6.24646 5.21327C5.9665 5.49224 5.76582 5.85712 5.63228 6.44227C5.88742 6.38622 6.15297 6.34079 6.42915 6.30366C7.75823 6.12497 9.45647 6.12498 11.6005 6.125H16.3988C18.5429 6.12498 20.2411 6.12497 21.5702 6.30366C21.7699 6.3305 21.964 6.36169 22.1526 6.39808C22.0191 5.83863 21.8216 5.48515 21.5487 5.21327C21.1899 4.85567 20.6892 4.62769 19.7655 4.50394C18.8169 4.37685 17.5616 4.375 15.7708 4.375H12.0244C10.2336 4.375 8.97831 4.37685 8.02972 4.50394C7.10598 4.62769 6.60532 4.85567 6.24646 5.21327Z" fill="#7F8A96"/>
<path fill-rule="evenodd" clip-rule="evenodd" d="M20.4163 9.625C18.9666 9.625 17.7913 10.8003 17.7913 12.25C17.7913 13.6998 18.9666 14.875 20.4163 14.875C21.8661 14.875 23.0413 13.6998 23.0413 12.25C23.0413 10.8003 21.8661 9.625 20.4163 9.625ZM20.4163 11.375C19.9331 11.375 19.5413 11.7668 19.5413 12.25C19.5413 12.7333 19.9331 13.125 20.4163 13.125C20.8996 13.125 21.2913 12.7333 21.2913 12.25C21.2913 11.7668 20.8996 11.375 20.4163 11.375Z" fill="#7F8A96"/>
</svg>
