<svg width="28" height="28" viewBox="0 0 28 28" fill="none" xmlns="http://www.w3.org/2000/svg">
<path fill-rule="evenodd" clip-rule="evenodd" d="M24.2083 8.1665C24.2083 8.64975 23.8165 9.0415 23.3333 9.0415L4.66658 9.0415C4.18334 9.0415 3.79158 8.64975 3.79158 8.1665C3.79158 7.68325 4.18334 7.2915 4.66658 7.2915L23.3333 7.2915C23.8165 7.2915 24.2083 7.68325 24.2083 8.1665Z" fill="#2D3541"/>
<path fill-rule="evenodd" clip-rule="evenodd" d="M24.2083 14C24.2083 14.4832 23.8165 14.875 23.3333 14.875L4.66658 14.875C4.18334 14.875 3.79158 14.4832 3.79158 14C3.79158 13.5168 4.18334 13.125 4.66658 13.125L23.3333 13.125C23.8165 13.125 24.2083 13.5168 24.2083 14Z" fill="#2D3541"/>
<path fill-rule="evenodd" clip-rule="evenodd" d="M24.2083 19.8335C24.2083 20.3167 23.8165 20.7085 23.3333 20.7085L4.66658 20.7085C4.18334 20.7085 3.79158 20.3167 3.79158 19.8335C3.79158 19.3502 4.18334 18.9585 4.66658 18.9585L23.3333 18.9585C23.8165 18.9585 24.2083 19.3502 24.2083 19.8335Z" fill="#2D3541"/>
</svg>
