<svg width="28" height="28" viewBox="0 0 28 28" fill="none" xmlns="http://www.w3.org/2000/svg">
<path fill-rule="evenodd" clip-rule="evenodd" d="M22.0568 4.57576C20.8739 3.3677 19.187 2.9221 17.5355 3.39201C17.0707 3.52426 16.5867 3.25468 16.4545 2.78988C16.3222 2.32508 16.5918 1.84107 17.0566 1.70882C19.3178 1.06541 21.6703 1.67969 23.3072 3.35141C23.6453 3.6967 23.6395 4.25069 23.2942 4.58878C22.9489 4.92688 22.3949 4.92104 22.0568 4.57576ZM13.0553 3.85995C12.8055 3.43169 12.0777 3.17198 11.3385 3.59449C10.6019 4.01545 10.4723 4.7575 10.7177 5.1783L13.6643 10.2313C13.9077 10.6487 13.7667 11.1845 13.3492 11.4279C12.9318 11.6714 12.396 11.5303 12.1526 11.1128L9.20598 6.05986C9.20583 6.05961 9.20612 6.06011 9.20598 6.05986L8.22378 4.37554C7.97404 3.94728 7.24626 3.68756 6.50698 4.11007C5.7704 4.53104 5.64085 5.27308 5.88623 5.69389L10.3061 13.2733C10.5496 13.6908 10.4085 14.2266 9.99104 14.47C9.57359 14.7134 9.03783 14.5724 8.79439 14.1549L6.82999 10.7863C6.58026 10.358 5.85248 10.0983 5.11319 10.5208C4.37661 10.9418 4.24706 11.6838 4.49245 12.1046L8.91235 19.6841C10.7894 22.903 15.4215 23.9476 19.3497 21.7026C23.2751 19.4592 24.6705 14.9775 22.7977 11.766L19.8511 6.71301C19.6014 6.28476 18.8736 6.02504 18.1343 6.44755C17.3978 6.86851 17.2682 7.61056 17.5136 8.03136L19.478 11.4C19.5956 11.6016 19.6277 11.8418 19.5673 12.0673C19.5069 12.2927 19.3589 12.4847 19.1563 12.6005C17.3568 13.6289 16.8053 15.6175 17.5931 16.9686C17.8365 17.386 17.6955 17.9218 17.278 18.1652C16.8606 18.4087 16.3248 18.2676 16.0814 17.8501C14.8456 15.731 15.6235 13.1098 17.5553 11.5768L13.0553 3.85995ZM16.2382 5.84419L14.567 2.97839C13.7318 1.54619 11.8567 1.28265 10.4701 2.07512C10.0428 2.31935 9.6793 2.65413 9.40525 3.04254C8.47186 2.01485 6.86439 1.89017 5.63864 2.5907C4.24932 3.38471 3.53498 5.1358 4.3745 6.57544L5.54369 8.58044C5.09448 8.62923 4.64893 8.77049 4.24485 9.00142C2.85554 9.79543 2.14119 11.5465 2.98071 12.9862L7.40061 20.5656C9.86315 24.7885 15.6426 25.8369 20.218 23.222C24.7962 20.6055 26.7764 15.1148 24.3095 10.8844L21.3629 5.83145C20.5277 4.39926 18.6526 4.13571 17.266 4.92818C16.8576 5.16157 16.5076 5.47764 16.2382 5.84419ZM5.14951 20.8357C5.56697 20.5923 6.10273 20.7333 6.34616 21.1508C7.31084 22.8051 8.78561 24.0561 10.6043 24.8678C11.0456 25.0647 11.2437 25.5821 11.0467 26.0234C10.8498 26.4647 10.3324 26.6628 9.89107 26.4658C7.77764 25.5226 6.00453 24.0389 4.83442 22.0324C4.59099 21.6149 4.73206 21.0791 5.14951 20.8357Z" fill="#7F8A96"/>
</svg>
