<svg width="16" height="17" viewBox="0 0 16 17" fill="none" xmlns="http://www.w3.org/2000/svg">
<path d="M7.99992 12.3335C8.27606 12.3335 8.49992 12.1096 8.49992 11.8335V7.8335C8.49992 7.55735 8.27606 7.3335 7.99992 7.3335C7.72378 7.3335 7.49992 7.55735 7.49992 7.8335V11.8335C7.49992 12.1096 7.72378 12.3335 7.99992 12.3335Z" fill="#CBD0D6"/>
<path d="M7.99992 5.16683C8.36811 5.16683 8.66659 5.46531 8.66659 5.8335C8.66659 6.20169 8.36811 6.50016 7.99992 6.50016C7.63173 6.50016 7.33325 6.20169 7.33325 5.8335C7.33325 5.46531 7.63173 5.16683 7.99992 5.16683Z" fill="#CBD0D6"/>
<path fill-rule="evenodd" clip-rule="evenodd" d="M0.833252 8.50016C0.833252 4.54212 4.04188 1.3335 7.99992 1.3335C11.958 1.3335 15.1666 4.54212 15.1666 8.50016C15.1666 12.4582 11.958 15.6668 7.99992 15.6668C4.04188 15.6668 0.833252 12.4582 0.833252 8.50016ZM7.99992 2.3335C4.59416 2.3335 1.83325 5.09441 1.83325 8.50016C1.83325 11.9059 4.59416 14.6668 7.99992 14.6668C11.4057 14.6668 14.1666 11.9059 14.1666 8.50016C14.1666 5.09441 11.4057 2.3335 7.99992 2.3335Z" fill="#CBD0D6"/>
</svg>
