<svg width="29" height="28" viewBox="0 0 29 28" fill="none" xmlns="http://www.w3.org/2000/svg">
<g id="Outline / Custom / Insta">
<path id="Vector" d="M19.8557 9.65477C20.5516 9.65477 21.1157 9.09064 21.1157 8.39477C21.1157 7.69889 20.5516 7.13477 19.8557 7.13477C19.1598 7.13477 18.5957 7.69889 18.5957 8.39477C18.5957 9.09064 19.1598 9.65477 19.8557 9.65477Z" fill="white"/>
<path id="Vector_2" d="M14.2502 8.60828C13.1838 8.60828 12.1413 8.9245 11.2547 9.51695C10.368 10.1094 9.67691 10.9515 9.26882 11.9367C8.86073 12.9219 8.75396 14.006 8.962 15.0519C9.17004 16.0978 9.68356 17.0585 10.4376 17.8126C11.1917 18.5666 12.1524 19.0801 13.1983 19.2882C14.2442 19.4962 15.3283 19.3894 16.3135 18.9814C17.2987 18.5733 18.1408 17.8822 18.7332 16.9955C19.3257 16.1089 19.6419 15.0664 19.6419 14C19.6421 13.2919 19.5028 12.5907 19.2319 11.9364C18.9611 11.2822 18.5639 10.6877 18.0632 10.187C17.5625 9.68625 16.968 9.28911 16.3138 9.01823C15.6595 8.74735 14.9583 8.60805 14.2502 8.60828ZM14.2502 17.5C13.5579 17.5 12.8812 17.2948 12.3057 16.9102C11.7301 16.5256 11.2815 15.979 11.0166 15.3394C10.7517 14.6999 10.6824 13.9961 10.8174 13.3172C10.9525 12.6383 11.2858 12.0146 11.7753 11.5252C12.2648 11.0357 12.8884 10.7023 13.5673 10.5673C14.2463 10.4322 14.95 10.5015 15.5895 10.7664C16.2291 11.0314 16.7757 11.48 17.1603 12.0555C17.5449 12.6311 17.7502 13.3078 17.7502 14C17.7502 14.9283 17.3814 15.8185 16.725 16.4749C16.0686 17.1313 15.1784 17.5 14.2502 17.5Z" fill="white"/>
<path id="Vector_3" d="M14.25 5.39175C17.0535 5.39175 17.386 5.40225 18.4929 5.453C19.1587 5.46017 19.8182 5.58243 20.4424 5.81438C20.8952 5.98934 21.3064 6.25705 21.6497 6.60031C21.993 6.94357 22.2607 7.35481 22.4356 7.80763C22.6676 8.43177 22.7898 9.09132 22.797 9.75713C22.8478 10.864 22.8583 11.1965 22.8583 14.0009C22.8583 16.8053 22.8478 17.136 22.797 18.2429C22.7898 18.9087 22.6676 19.5682 22.4356 20.1924C22.2607 20.6452 21.993 21.0564 21.6497 21.3997C21.3064 21.743 20.8952 22.0107 20.4424 22.1856C19.8182 22.4176 19.1587 22.5398 18.4929 22.547C17.386 22.5978 17.0535 22.6083 14.25 22.6083C11.4465 22.6083 11.114 22.5978 10.0071 22.547C9.34132 22.5398 8.68177 22.4176 8.05763 22.1856C7.60481 22.0107 7.19357 21.743 6.85031 21.3997C6.50705 21.0564 6.23934 20.6452 6.06438 20.1924C5.83243 19.5682 5.71017 18.9087 5.703 18.2429C5.65225 17.136 5.64175 16.8035 5.64175 14C5.64175 11.1965 5.65225 10.864 5.703 9.75713C5.71017 9.09132 5.83243 8.43177 6.06438 7.80763C6.23934 7.35481 6.50705 6.94357 6.85031 6.60031C7.19357 6.25705 7.60481 5.98934 8.05763 5.81438C8.68177 5.58243 9.34132 5.46017 10.0071 5.453C11.114 5.40225 11.4465 5.39175 14.25 5.39175ZM14.25 3.5C11.3984 3.5 11.0405 3.51225 9.9205 3.563C9.04967 3.58047 8.18811 3.74556 7.3725 4.05125C6.67499 4.3212 6.04153 4.73381 5.51267 5.26267C4.98381 5.79153 4.5712 6.42499 4.30125 7.1225C3.99546 7.93838 3.83037 8.80025 3.813 9.67138C3.76225 10.7914 3.75 11.1475 3.75 14C3.75 16.8525 3.76225 17.2095 3.813 18.3295C3.83047 19.2003 3.99556 20.0619 4.30125 20.8775C4.5712 21.575 4.98381 22.2085 5.51267 22.7373C6.04153 23.2662 6.67499 23.6788 7.3725 23.9488C8.18838 24.2545 9.05025 24.4196 9.92138 24.437C11.0414 24.4878 11.3984 24.5 14.25 24.5C17.1016 24.5 17.4595 24.4878 18.5795 24.437C19.4506 24.4196 20.3125 24.2545 21.1284 23.9488C21.8259 23.6788 22.4593 23.2662 22.9882 22.7373C23.5171 22.2085 23.9297 21.575 24.1996 20.8775C24.5051 20.0616 24.6699 19.1997 24.687 18.3286C24.7378 17.2086 24.75 16.8525 24.75 14C24.75 11.1475 24.7378 10.7905 24.687 9.6705C24.6695 8.79967 24.5044 7.93811 24.1988 7.1225C23.9288 6.42499 23.5162 5.79153 22.9873 5.26267C22.4585 4.73381 21.825 4.3212 21.1275 4.05125C20.3116 3.74576 19.4497 3.58096 18.5786 3.56387C17.4586 3.51137 17.1025 3.5 14.25 3.5Z" fill="white"/>
</g>
</svg>
