<svg xmlns="http://www.w3.org/2000/svg" width="145" height="28" viewBox="0 0 145 28" fill="none">
<path fill-rule="evenodd" clip-rule="evenodd" d="M34.3522 9.01593C34.3522 4.03657 30.3156 0 25.3363 0L24.5973 0C21.6743 0 19.0763 1.39094 17.4289 3.54703C15.7815 1.39099 13.1834 9.05089e-05 10.2605 9.05089e-05L9.52152 9.05089e-05C4.54218 9.05089e-05 0.505632 4.03666 0.505632 9.01602C0.505632 9.08243 0.504216 9.14867 0.502805 9.21474C0.499994 9.34628 0.497198 9.47713 0.505619 9.60723L0.505632 25.3258C0.505632 26.032 1.07811 26.6045 1.7843 26.6045H15.3688L15.3819 26.6045H19.6235L19.6438 26.6044H33.0735C33.7797 26.6044 34.3522 26.0319 34.3522 25.3257L34.3522 9.60714C34.3606 9.47702 34.3578 9.34615 34.355 9.21458C34.3536 9.14854 34.3522 9.08232 34.3522 9.01593ZM45.3958 25.4544C45.3958 26.0909 44.8799 26.6068 44.2434 26.6068H39.1537C38.5172 26.6068 38.0012 26.0909 38.0012 25.4544L38.0012 11.6697C38.0012 4.97755 43.1035 0.134073 49.6108 0.134073C56.3399 0.134073 61.2203 4.97755 61.2203 11.6697L61.2203 25.4544C61.2203 26.0909 60.7043 26.6068 60.0679 26.6068H54.9782C54.3417 26.6068 53.8257 26.0909 53.8257 25.4544V19.9147H45.3958V25.4544ZM45.3958 11.0781V13.4074L53.8257 13.4074V11.0781C53.8257 8.67487 52.014 6.86318 49.6108 6.86318C47.2075 6.86318 45.3958 8.67487 45.3958 11.0781ZM73.1343 25.4544C73.1343 26.0909 72.6183 26.6068 71.9818 26.6068H66.8921C66.2557 26.6068 65.7397 26.0909 65.7397 25.4544V1.8781C65.7397 1.24161 66.2557 0.725642 66.8921 0.725642L82.667 0.725642C83.3035 0.725642 83.8195 1.24161 83.8195 1.8781V6.3023C83.8195 6.93878 83.3035 7.45476 82.667 7.45476L73.1343 7.45476V11.5957H81.2251C81.8616 11.5957 82.3776 12.1117 82.3776 12.7482V17.0245C82.3776 17.661 81.8616 18.177 81.2251 18.177H73.1343V25.4544ZM85.6736 13.6662C85.6736 21.2088 91.8851 27.1984 99.7234 27.1984C107.562 27.1984 113.773 21.2088 113.773 13.6662C113.773 6.12372 107.562 0.134073 99.7234 0.134073C91.8851 0.134073 85.6736 6.12372 85.6736 13.6662ZM106.305 13.6662C106.305 17.3266 103.384 20.2475 99.7234 20.2475C96.0631 20.2475 93.1422 17.3266 93.1422 13.6662C93.1422 10.0059 96.0631 7.08502 99.7234 7.08502C103.384 7.08502 106.305 10.0059 106.305 13.6662ZM130.45 27.1984C122.612 27.1984 116.4 21.2088 116.4 13.6662C116.4 6.12372 122.612 0.134073 130.45 0.134073C138.288 0.134073 144.5 6.12372 144.5 13.6662C144.5 21.2088 138.288 27.1984 130.45 27.1984ZM130.45 20.2475C134.11 20.2475 137.031 17.3266 137.031 13.6662C137.031 10.0059 134.11 7.08502 130.45 7.08502C126.79 7.08502 123.869 10.0059 123.869 13.6662C123.869 17.3266 126.79 20.2475 130.45 20.2475ZM23.4881 21.5922C26.0754 21.5922 28.185 19.0746 28.2877 15.9212C28.2908 15.8658 28.2923 15.8099 28.2923 15.7537C28.2923 15.7328 28.2921 15.712 28.2917 15.6913L28.2917 15.6801C28.2917 12.415 26.141 9.76807 23.4881 9.76807C20.8352 9.76807 18.6846 12.415 18.6846 15.6801C18.6846 18.9453 20.8352 21.5922 23.4881 21.5922ZM11.5174 21.5921C14.1703 21.5921 16.321 18.9452 16.321 15.68C16.321 12.4149 14.1703 9.76798 11.5174 9.76798C8.86449 9.76798 6.71387 12.4149 6.71387 15.68C6.71387 18.9452 8.86449 21.5921 11.5174 21.5921Z" fill="white"/>
<path d="M16.3202 15.7537C16.3202 17.3455 15.096 18.6359 13.5859 18.6359C12.0758 18.6359 10.8516 17.3455 10.8516 15.7537C10.8516 14.162 12.0758 12.8716 13.5859 12.8716C15.096 12.8716 16.3202 14.162 16.3202 15.7537Z" fill="white"/>
<path d="M16.3202 15.7537C16.3202 17.3455 15.096 18.6359 13.5859 18.6359C12.0758 18.6359 10.8516 17.3455 10.8516 15.7537C10.8516 14.162 12.0758 12.8716 13.5859 12.8716C15.096 12.8716 16.3202 14.162 16.3202 15.7537Z" stroke="#6C4A7E"/>
<path d="M28.3202 15.7537C28.3202 17.3455 27.096 18.6359 25.5859 18.6359C24.0758 18.6359 22.8516 17.3455 22.8516 15.7537C22.8516 14.162 24.0758 12.8716 25.5859 12.8716C27.096 12.8716 28.3202 14.162 28.3202 15.7537Z" fill="white"/>
<path d="M28.3202 15.7537C28.3202 17.3455 27.096 18.6359 25.5859 18.6359C24.0758 18.6359 22.8516 17.3455 22.8516 15.7537C22.8516 14.162 24.0758 12.8716 25.5859 12.8716C27.096 12.8716 28.3202 14.162 28.3202 15.7537Z" stroke="#6C4A7E"/>
</svg>