<svg width="28" height="28" viewBox="0 0 28 28" fill="none" xmlns="http://www.w3.org/2000/svg">
<g clip-path="url(#clip0_3331_2860)">
<path fill-rule="evenodd" clip-rule="evenodd" d="M3.70009 6.03334C2.33325 7.40017 2.33325 9.60006 2.33325 13.9998C2.33325 18.3996 2.33325 20.5995 3.70009 21.9663C5.06692 23.3332 7.26681 23.3332 11.6666 23.3332H16.3333C20.733 23.3332 22.9329 23.3332 24.2998 21.9663C25.6666 20.5995 25.6666 18.3996 25.6666 13.9998C25.6666 9.60006 25.6666 7.40017 24.2998 6.03334C22.9329 4.6665 20.733 4.6665 16.3333 4.6665H11.6666C7.26681 4.6665 5.06692 4.6665 3.70009 6.03334ZM21.6721 8.77301C21.9815 9.14425 21.9313 9.696 21.5601 10.0054L18.9975 12.1408C17.9634 13.0026 17.1253 13.7011 16.3855 14.1768C15.615 14.6725 14.8645 14.9855 13.9999 14.9855C13.1353 14.9855 12.3849 14.6725 11.6143 14.1768C10.8746 13.7011 10.0364 13.0026 9.00233 12.1408L6.43976 10.0054C6.06852 9.696 6.01836 9.14425 6.32772 8.77301C6.63709 8.40177 7.18884 8.35161 7.56008 8.66098L10.0788 10.7599C11.1672 11.6669 11.9229 12.2947 12.5609 12.705C13.1785 13.1022 13.5973 13.2355 13.9999 13.2355C14.4025 13.2355 14.8213 13.1022 15.4389 12.705C16.0769 12.2947 16.8326 11.6669 17.921 10.7599L20.4398 8.66098C20.811 8.35161 21.3627 8.40177 21.6721 8.77301Z" fill="#FFCF55"/>
</g>
<defs>
<clipPath id="clip0_3331_2860">
<rect width="28" height="28" fill="white"/>
</clipPath>
</defs>
</svg>
