<svg width="28" height="28" viewBox="0 0 28 28" fill="none" xmlns="http://www.w3.org/2000/svg">
<path fill-rule="evenodd" clip-rule="evenodd" d="M10.7917 10.5002C10.7917 8.72825 12.2281 7.29183 14 7.29183C15.7719 7.29183 17.2083 8.72825 17.2083 10.5002C17.2083 12.2721 15.7719 13.7085 14 13.7085C12.2281 13.7085 10.7917 12.2721 10.7917 10.5002ZM14 9.04183C13.1946 9.04183 12.5417 9.69475 12.5417 10.5002C12.5417 11.3056 13.1946 11.9585 14 11.9585C14.8054 11.9585 15.4583 11.3056 15.4583 10.5002C15.4583 9.69475 14.8054 9.04183 14 9.04183Z" fill="#7F8A96"/>
<path fill-rule="evenodd" clip-rule="evenodd" d="M14 14.2918C12.605 14.2918 11.2987 14.5727 10.3089 15.0676C9.37134 15.5364 8.45833 16.3459 8.45833 17.5002L8.45819 17.573C8.4564 18.1685 8.45338 19.1711 9.4036 19.8589C9.84455 20.1781 10.4264 20.3816 11.1471 20.5113C11.8746 20.6422 12.8067 20.7085 14 20.7085C15.1933 20.7085 16.1254 20.6422 16.8529 20.5113C17.5736 20.3816 18.1555 20.1781 18.5964 19.8589C19.5466 19.1711 19.5436 18.1685 19.5418 17.573L19.5417 17.5002C19.5417 16.3459 18.6287 15.5364 17.6911 15.0676C16.7013 14.5727 15.3951 14.2918 14 14.2918ZM10.2083 17.5002C10.2083 17.3658 10.34 17.0086 11.0915 16.6329C11.7906 16.2833 12.8177 16.0418 14 16.0418C15.1823 16.0418 16.2094 16.2833 16.9085 16.6329C17.66 17.0086 17.7917 17.3658 17.7917 17.5002C17.7917 18.2054 17.7468 18.3135 17.5703 18.4413C17.4279 18.5444 17.1347 18.6825 16.543 18.789C15.9579 18.8942 15.1401 18.9585 14 18.9585C12.8599 18.9585 12.0421 18.8942 11.457 18.789C10.8653 18.6825 10.5721 18.5444 10.4297 18.4413C10.2532 18.3135 10.2083 18.2054 10.2083 17.5002Z" fill="#7F8A96"/>
<path fill-rule="evenodd" clip-rule="evenodd" d="M10.1773 2.39313C11.8619 1.81618 12.9062 1.4585 14 1.4585C15.0938 1.4585 16.1381 1.81618 17.8227 2.39313L18.6714 2.68365C20.3996 3.27523 21.7334 3.73177 22.6881 4.11965C23.1691 4.31503 23.5826 4.50428 23.9155 4.69764C24.2359 4.88372 24.5574 5.11581 24.7758 5.42696C24.9916 5.73452 25.1032 6.11261 25.1734 6.47659C25.2463 6.85498 25.2903 7.3089 25.3187 7.83008C25.375 8.86496 25.375 10.2827 25.375 12.1216V13.9901C25.375 21.108 19.999 24.5206 16.8019 25.9172L16.7703 25.931C16.3739 26.1042 16.0013 26.267 15.5731 26.3766C15.1211 26.4923 14.6408 26.5418 14 26.5418C13.3592 26.5418 12.8789 26.4923 12.4269 26.3766C11.9987 26.267 11.6261 26.1042 11.2297 25.931L11.1981 25.9172C8.00103 24.5206 2.625 21.108 2.625 13.9901V12.1217C2.625 10.2829 2.625 8.86492 2.68135 7.83008C2.70973 7.3089 2.7537 6.85498 2.82662 6.47659C2.89676 6.11261 3.00837 5.73452 3.22424 5.42696C3.44263 5.11581 3.76407 4.88372 4.08448 4.69764C4.41743 4.50428 4.83092 4.31503 5.31187 4.11965C6.26664 3.73177 7.60039 3.27523 9.32861 2.68366L10.1773 2.39313ZM14 3.2085C13.2326 3.2085 12.4777 3.45541 10.5941 4.10018L9.92577 4.32893C8.16108 4.93299 6.87411 5.37388 5.97053 5.74096C5.5195 5.92419 5.19272 6.07773 4.96333 6.21095C4.85009 6.27672 4.77206 6.33098 4.71995 6.37334C4.67576 6.40926 4.65892 6.4296 4.65651 6.43256C4.65425 6.43623 4.63975 6.46047 4.61933 6.51779C4.59602 6.58325 4.57017 6.6771 4.545 6.80773C4.49405 7.07214 4.45544 7.43535 4.42876 7.92523C4.37532 8.90663 4.375 10.2766 4.375 12.1529V13.9901C4.375 20.0277 8.88988 22.9992 11.8986 24.3135C12.332 24.5028 12.5823 24.61 12.8609 24.6813C13.127 24.7494 13.4517 24.7918 14 24.7918C14.5483 24.7918 14.873 24.7494 15.1391 24.6813C15.4177 24.61 15.668 24.5028 16.1014 24.3135C19.1101 22.9992 23.625 20.0277 23.625 13.9901V12.1529C23.625 10.2766 23.6247 8.90663 23.5712 7.92523C23.5446 7.43535 23.506 7.07214 23.455 6.80773C23.4298 6.6771 23.404 6.58325 23.3807 6.51779C23.3602 6.46043 23.3457 6.43619 23.3435 6.43256C23.3411 6.42957 23.3242 6.40923 23.2801 6.37334C23.2279 6.33098 23.1499 6.27672 23.0367 6.21095C22.8073 6.07773 22.4805 5.92419 22.0295 5.74096C21.1259 5.37388 19.8389 4.93299 18.0742 4.32893L17.406 4.10018C15.5223 3.45541 14.7674 3.2085 14 3.2085Z" fill="#7F8A96"/>
</svg>
