<svg width="28" height="28" viewBox="0 0 28 28" fill="none" xmlns="http://www.w3.org/2000/svg">
<g clip-path="url(#clip0_2808_2616)">
<path d="M16.333 3.2085C18.5576 3.2085 20.1381 3.21036 21.337 3.37155C22.5108 3.52936 23.187 3.82531 23.6808 4.31905C24.2491 4.88738 24.4965 5.32793 24.6335 6.11331C24.788 6.99853 24.7913 8.26123 24.7913 10.5002C24.7913 10.9834 25.1831 11.3752 25.6663 11.3752C26.1496 11.3752 26.5413 10.9834 26.5413 10.5002L26.5414 10.3878C26.5414 8.28875 26.5414 6.86682 26.3575 5.81248C26.1528 4.63959 25.7167 3.88012 24.9182 3.08161C24.0451 2.20852 22.938 1.82105 21.5702 1.63715C20.2411 1.45846 18.5429 1.45848 16.3989 1.4585H16.333C15.8498 1.4585 15.458 1.85025 15.458 2.3335C15.458 2.81675 15.8498 3.2085 16.333 3.2085Z" fill="#7F8A96"/>
<path d="M2.33301 16.6252C2.81626 16.6252 3.20801 17.0169 3.20801 17.5002C3.20801 19.7391 3.21138 21.0018 3.36584 21.887C3.50289 22.6724 3.75024 23.113 4.31857 23.6813C4.81231 24.175 5.48857 24.471 6.66234 24.6288C7.86128 24.79 9.44172 24.7918 11.6663 24.7918C12.1496 24.7918 12.5413 25.1836 12.5413 25.6668C12.5413 26.1501 12.1496 26.5418 11.6663 26.5418H11.6005C9.45648 26.5419 7.75824 26.5419 6.42915 26.3632C5.06133 26.1793 3.95422 25.7918 3.08113 24.9187C2.28262 24.1202 1.84656 23.3607 1.64189 22.1878C1.45792 21.1335 1.45795 19.7116 1.45801 17.6126L1.45801 17.5002C1.45801 17.0169 1.84976 16.6252 2.33301 16.6252Z" fill="#7F8A96"/>
<path d="M25.6663 16.6252C26.1496 16.6252 26.5413 17.0169 26.5413 17.5002L26.5414 17.6125C26.5414 19.7116 26.5414 21.1335 26.3575 22.1878C26.1528 23.3607 25.7167 24.1202 24.9182 24.9187C24.0451 25.7918 22.938 26.1793 21.5702 26.3632C20.2411 26.5419 18.5429 26.5419 16.3988 26.5418H16.333C15.8498 26.5418 15.458 26.1501 15.458 25.6668C15.458 25.1836 15.8498 24.7918 16.333 24.7918C18.5576 24.7918 20.1381 24.79 21.337 24.6288C22.5108 24.471 23.187 24.175 23.6808 23.6813C24.2491 23.113 24.4965 22.6724 24.6335 21.887C24.788 21.0018 24.7913 19.7391 24.7913 17.5002C24.7913 17.0169 25.1831 16.6252 25.6663 16.6252Z" fill="#7F8A96"/>
<path d="M11.6005 1.4585H11.6663C12.1496 1.4585 12.5413 1.85025 12.5413 2.3335C12.5413 2.81675 12.1496 3.2085 11.6663 3.2085C9.44172 3.2085 7.86128 3.21036 6.66234 3.37155C5.48857 3.52936 4.81231 3.82531 4.31857 4.31905C3.75024 4.88738 3.50289 5.32793 3.36584 6.11331C3.21138 6.99853 3.20801 8.26123 3.20801 10.5002C3.20801 10.9834 2.81626 11.3752 2.33301 11.3752C1.84976 11.3752 1.45801 10.9834 1.45801 10.5002L1.45801 10.3878C1.45795 8.28878 1.45792 6.86681 1.64189 5.81248C1.84656 4.63959 2.28262 3.88012 3.08113 3.08161C3.95422 2.20852 5.06133 1.82105 6.42915 1.63715C7.75823 1.45846 9.45648 1.45848 11.6005 1.4585Z" fill="#7F8A96"/>
<path d="M2.33301 13.1252C1.84976 13.1252 1.45801 13.5169 1.45801 14.0002C1.45801 14.4834 1.84976 14.8752 2.33301 14.8752H25.6663C26.1496 14.8752 26.5413 14.4834 26.5413 14.0002C26.5413 13.5169 26.1496 13.1252 25.6663 13.1252H2.33301Z" fill="#7F8A96"/>
</g>
<defs>
<clipPath id="clip0_2808_2616">
<rect width="28" height="28" fill="white"/>
</clipPath>
</defs>
</svg>
