<svg width="25" height="24" viewBox="0 0 25 24" fill="none" xmlns="http://www.w3.org/2000/svg">
<g id="Outline / Video, Audio, Sound / Reel">
<path id="Vector" fill-rule="evenodd" clip-rule="evenodd" d="M12.5 2.75C7.39137 2.75 3.25 6.89137 3.25 12C3.25 17.1086 7.39137 21.25 12.5 21.25C17.6086 21.25 21.75 17.1086 21.75 12C21.75 6.89137 17.6086 2.75 12.5 2.75ZM17.9805 21.25C21.1354 19.3767 23.25 15.9353 23.25 12C23.25 6.06294 18.4371 1.25 12.5 1.25C6.56294 1.25 1.75 6.06294 1.75 12C1.75 17.9371 6.56294 22.75 12.5 22.75H22.5C22.9142 22.75 23.25 22.4142 23.25 22C23.25 21.5858 22.9142 21.25 22.5 21.25H17.9805ZM12.5 6.75C12.0858 6.75 11.75 7.08579 11.75 7.5C11.75 7.91421 12.0858 8.25 12.5 8.25C12.9142 8.25 13.25 7.91421 13.25 7.5C13.25 7.08579 12.9142 6.75 12.5 6.75ZM10.25 7.5C10.25 6.25736 11.2574 5.25 12.5 5.25C13.7426 5.25 14.75 6.25736 14.75 7.5C14.75 8.74264 13.7426 9.75 12.5 9.75C11.2574 9.75 10.25 8.74264 10.25 7.5ZM8 11.25C7.58579 11.25 7.25 11.5858 7.25 12C7.25 12.4142 7.58579 12.75 8 12.75C8.41421 12.75 8.75 12.4142 8.75 12C8.75 11.5858 8.41421 11.25 8 11.25ZM5.75 12C5.75 10.7574 6.75736 9.75 8 9.75C9.24264 9.75 10.25 10.7574 10.25 12C10.25 13.2426 9.24264 14.25 8 14.25C6.75736 14.25 5.75 13.2426 5.75 12ZM17 11.25C16.5858 11.25 16.25 11.5858 16.25 12C16.25 12.4142 16.5858 12.75 17 12.75C17.4142 12.75 17.75 12.4142 17.75 12C17.75 11.5858 17.4142 11.25 17 11.25ZM14.75 12C14.75 10.7574 15.7574 9.75 17 9.75C18.2426 9.75 19.25 10.7574 19.25 12C19.25 13.2426 18.2426 14.25 17 14.25C15.7574 14.25 14.75 13.2426 14.75 12ZM12.5 15.75C12.0858 15.75 11.75 16.0858 11.75 16.5C11.75 16.9142 12.0858 17.25 12.5 17.25C12.9142 17.25 13.25 16.9142 13.25 16.5C13.25 16.0858 12.9142 15.75 12.5 15.75ZM10.25 16.5C10.25 15.2574 11.2574 14.25 12.5 14.25C13.7426 14.25 14.75 15.2574 14.75 16.5C14.75 17.7426 13.7426 18.75 12.5 18.75C11.2574 18.75 10.25 17.7426 10.25 16.5Z" fill="white"/>
</g>
</svg>
