<svg width="121" height="101" viewBox="0 0 121 101" fill="none" xmlns="http://www.w3.org/2000/svg">
<path fill-rule="evenodd" clip-rule="evenodd" d="M10.6015 37.1929C10.6015 22.5751 22.4517 10.7251 37.0695 10.7251L39.239 10.7251C47.8199 10.7251 55.447 14.8084 60.2833 21.138C65.1196 14.8086 72.7467 10.7254 81.3274 10.7254L83.4969 10.7254C98.1147 10.7254 109.965 22.5754 109.965 37.1932C109.965 37.7763 109.946 38.355 109.909 38.9288L109.965 38.9288L109.965 85.0733C109.965 87.1465 108.284 88.8271 106.211 88.8271L66.3307 88.8271C66.3179 88.8272 66.3051 88.8273 66.2922 88.8273L53.8404 88.8273C53.8204 88.8273 53.8005 88.8271 53.7806 88.8268L14.3551 88.8268C12.282 88.8268 10.6013 87.1462 10.6013 85.0731L10.6015 38.9285L10.6575 38.9285C10.6203 38.3548 10.6015 37.776 10.6015 37.1929Z" fill="#CFCFCF"/>
<path d="M63.5503 57.5844C63.5503 67.1698 69.8638 74.9403 77.652 74.9403C85.4402 74.9403 91.7538 67.1698 91.7539 57.5844C91.7539 47.999 85.4403 40.2285 77.6521 40.2285C69.8639 40.2285 63.5503 47.999 63.5503 57.5844Z" fill="white"/>
<path d="M63.557 57.8018C63.557 62.4747 67.1508 66.2628 71.5841 66.2628C76.0174 66.2628 79.6113 62.4747 79.6113 57.8018C79.6113 53.1289 76.0174 49.3408 71.5842 49.3408C67.1509 49.3408 63.557 53.1289 63.557 57.8018Z" fill="#1F1614"/>
<path d="M28.3941 57.5854C28.394 67.1708 34.7076 74.9413 42.4958 74.9413C50.284 74.9413 56.5976 67.1708 56.5976 57.5854C56.5976 48 50.2841 40.2295 42.4959 40.2295C34.7077 40.2295 28.3941 48 28.3941 57.5854Z" fill="white"/>
<path d="M28.389 57.8033C28.389 62.4762 31.9829 66.2643 36.4161 66.2643C40.8494 66.2643 44.4433 62.4762 44.4433 57.8033C44.4433 53.1304 40.8495 49.3423 36.4162 49.3423C31.9829 49.3423 28.389 53.1304 28.389 57.8033Z" fill="#1F1614"/>
<path fill-rule="evenodd" clip-rule="evenodd" d="M10.9218 38.4932C10.9218 23.8754 22.772 12.0254 37.3898 12.0254L39.5593 12.0254C48.1402 12.0254 55.7673 16.1087 60.6036 22.4383C65.4399 16.1089 73.067 12.0257 81.6477 12.0257L83.8172 12.0257C98.4351 12.0257 110.285 23.8757 110.285 38.4935C110.285 39.0766 110.266 39.6553 110.229 40.2291L110.285 40.2291L110.285 86.3736C110.285 88.4468 108.604 90.1274 106.531 90.1274L66.651 90.1274C66.6382 90.1275 66.6254 90.1276 66.6125 90.1276L54.1607 90.1276C54.1407 90.1276 54.1208 90.1274 54.101 90.1271L14.6754 90.1271C12.6023 90.1271 10.9217 88.4465 10.9217 86.3733L10.9218 40.2288L10.9778 40.2288C10.9407 39.655 10.9218 39.0763 10.9218 38.4932Z" fill="#CFCFCF"/>
<path d="M63.8472 58.892C63.8472 68.4774 70.1607 76.2479 77.9489 76.2479C85.7371 76.2479 92.0507 68.4774 92.0507 58.892C92.0508 49.3066 85.7372 41.5361 77.949 41.5361C70.1608 41.5361 63.8472 49.3066 63.8472 58.892Z" fill="white"/>
<path d="M68.5902 57.6133C68.5902 62.2862 72.184 66.0744 76.6173 66.0744C81.0506 66.0744 84.6445 62.2862 84.6445 57.6133C84.6445 52.9405 81.0506 49.1523 76.6174 49.1523C72.1841 49.1523 68.5902 52.9405 68.5902 57.6133Z" fill="#1F1614"/>
<path d="M28.7046 58.8891C28.7046 68.4745 35.0181 76.245 42.8063 76.245C50.5945 76.245 56.9081 68.4745 56.9082 58.8891C56.9082 49.3037 50.5946 41.5332 42.8064 41.5332C35.0182 41.5332 28.7046 49.3037 28.7046 58.8891Z" fill="white"/>
<path d="M37.2796 57.7003C37.2796 62.3731 40.8735 66.1613 45.3068 66.1613C49.7401 66.1613 53.3339 62.3731 53.334 57.7003C53.334 53.0274 49.7401 49.2393 45.3068 49.2393C40.8735 49.2393 37.2797 53.0274 37.2796 57.7003Z" fill="#1F1614"/>
<path d="M86.3965 42.4521L69.6042 38.5087" stroke="#A6A6A6" stroke-width="4.64751" stroke-linecap="round"/>
<path d="M34.6035 42.4521L51.3958 38.5087" stroke="#A6A6A6" stroke-width="4.64751" stroke-linecap="round"/>
<path d="M32.3656 71.3789C32.5302 71.4029 32.7682 71.5197 32.9984 71.7282L37.5157 74.2219C36.001 75.5493 37.3588 75.5493 37.6617 79.0007C37.9647 82.4521 34.8751 83.5664 33.0984 82.4521C31.6194 81.5244 31.2998 78.5472 33.1175 75.3613C34.1766 73.505 33.6155 72.2871 32.9984 71.7282L32.3656 71.3789Z" fill="white"/>
</svg>
