<svg width="current" height="current" viewBox="0 0 33 32" fill="none" xmlns="http://www.w3.org/2000/svg">
<g id="Outline / Security / Scanner ">
<g id="Vector">
<path d="M19.125 3.85925C21.6277 3.85925 23.4057 3.86135 24.7545 4.04269C26.075 4.22022 26.8358 4.55316 27.3913 5.10863C28.0306 5.74799 28.3089 6.24362 28.4631 7.12717C28.6369 8.12304 28.6406 9.54358 28.6406 12.0624C28.6406 12.606 29.0814 13.0468 29.625 13.0468C30.1687 13.0468 30.6094 12.606 30.6094 12.0624L30.6094 11.936C30.6095 9.57454 30.6095 7.97487 30.4025 6.78874C30.1723 5.46924 29.6817 4.61483 28.7834 3.71651C27.8012 2.73428 26.5557 2.29838 25.0169 2.09149C23.5216 1.89047 21.6111 1.89048 19.1991 1.8905H19.125C18.5814 1.8905 18.1406 2.33122 18.1406 2.87488C18.1406 3.41853 18.5814 3.85925 19.125 3.85925Z" fill="current"/>
<path d="M3.37501 18.953C3.91866 18.953 4.35938 19.3937 4.35938 19.9374C4.35938 22.4562 4.36317 23.8767 4.53694 24.8726C4.69112 25.7561 4.96939 26.2518 5.60876 26.8911C6.16422 27.4466 6.925 27.7795 8.2455 27.9571C9.59431 28.1384 11.3723 28.1405 13.875 28.1405C14.4187 28.1405 14.8594 28.5812 14.8594 29.1249C14.8594 29.6685 14.4187 30.1093 13.875 30.1093H13.801C11.3889 30.1093 9.47839 30.1093 7.98317 29.9083C6.44436 29.7014 5.19887 29.2655 4.21664 28.2832C3.31832 27.3849 2.82774 26.5305 2.5975 25.211C2.39052 24.0249 2.39057 22.4252 2.39063 20.0639L2.39063 19.9374C2.39063 19.3937 2.83135 18.953 3.37501 18.953Z" fill="current"/>
<path d="M29.625 18.953C30.1687 18.953 30.6094 19.3937 30.6094 19.9374L30.6094 20.0638C30.6095 22.4252 30.6095 24.0249 30.4025 25.211C30.1723 26.5305 29.6817 27.3849 28.7834 28.2832C27.8012 29.2655 26.5557 29.7014 25.0169 29.9083C23.5216 30.1093 21.6111 30.1093 19.1991 30.1093H19.125C18.5814 30.1093 18.1406 29.6685 18.1406 29.1249C18.1406 28.5812 18.5814 28.1405 19.125 28.1405C21.6277 28.1405 23.4057 28.1384 24.7545 27.9571C26.075 27.7795 26.8358 27.4466 27.3913 26.8911C28.0306 26.2518 28.3089 25.7561 28.4631 24.8726C28.6369 23.8767 28.6406 22.4562 28.6406 19.9374C28.6406 19.3937 29.0814 18.953 29.625 18.953Z" fill="current"/>
<path d="M13.801 1.8905H13.875C14.4187 1.8905 14.8594 2.33122 14.8594 2.87488C14.8594 3.41853 14.4187 3.85925 13.875 3.85925C11.3723 3.85925 9.59431 3.86135 8.2455 4.04269C6.925 4.22022 6.16422 4.55316 5.60876 5.10863C4.96939 5.74799 4.69112 6.24362 4.53694 7.12717C4.36317 8.12304 4.35938 9.54358 4.35938 12.0624C4.35938 12.606 3.91866 13.0468 3.37501 13.0468C2.83135 13.0468 2.39063 12.606 2.39063 12.0624L2.39063 11.936C2.39057 9.57457 2.39052 7.97486 2.5975 6.78874C2.82774 5.46924 3.31832 4.61483 4.21664 3.71651C5.19887 2.73428 6.44436 2.29838 7.98317 2.09149C9.47838 1.89047 11.3889 1.89048 13.801 1.8905Z" fill="current"/>
<path d="M3.37501 15.0155C2.83135 15.0155 2.39063 15.4562 2.39063 15.9999C2.39063 16.5435 2.83135 16.9843 3.37501 16.9843H29.625C30.1687 16.9843 30.6094 16.5435 30.6094 15.9999C30.6094 15.4562 30.1687 15.0155 29.625 15.0155H3.37501Z" fill="current"/>
</g>
</g>
</svg>
