<svg width="121" height="101" viewBox="0 0 121 101" fill="none" xmlns="http://www.w3.org/2000/svg">
<path fill-rule="evenodd" clip-rule="evenodd" d="M9.25917 44.0999C7.27152 29.6179 17.4002 16.2665 31.8823 14.2788L34.0317 13.9838C42.5328 12.817 50.6444 15.8253 56.2964 21.4385C60.2271 14.5102 67.2281 9.42781 75.7292 8.26102L77.8785 7.96601C92.3606 5.97831 105.712 16.1069 107.7 30.5889C107.779 31.1667 107.839 31.7426 107.88 32.316L107.936 32.3084L114.21 78.0244C114.492 80.0783 113.055 81.9718 111.002 82.2537L71.4919 87.6765C71.4792 87.6784 71.4665 87.6802 71.4538 87.682L59.1176 89.3751C59.0978 89.3778 59.0781 89.3804 59.0583 89.3828L19.999 94.7438C17.9451 95.0257 16.0516 93.5892 15.7697 91.5353L9.49516 45.8193L9.55064 45.8117C9.43583 45.2484 9.33846 44.6776 9.25917 44.0999Z" fill="#28CB86"/>
<path d="M64.4887 57.102C65.7921 66.5984 73.1036 73.4382 80.8194 72.3792C88.5353 71.3202 93.7336 62.7633 92.4303 53.267C91.1269 43.7706 83.8154 36.9308 76.0995 37.9898C68.3837 39.0488 63.1853 47.6057 64.4887 57.102Z" fill="white"/>
<path d="M64.5265 57.3164C65.1619 61.9459 69.2375 65.2102 73.6296 64.6073C78.0217 64.0045 81.0671 59.7629 80.4317 55.1334C79.7963 50.5039 75.7207 47.2397 71.3286 47.8425C66.9365 48.4453 63.8911 52.6869 64.5265 57.3164Z" fill="#1F1614"/>
<path d="M29.6596 61.8838C30.963 71.3801 38.2745 78.22 45.9903 77.1609C53.7062 76.1019 58.9045 67.5451 57.6012 58.0487C56.2978 48.5523 48.9863 41.7125 41.2704 42.7715C33.5546 43.8306 28.3562 52.3874 29.6596 61.8838Z" fill="white"/>
<path d="M29.6838 62.1006C30.3191 66.7301 34.3947 69.9943 38.7868 69.3915C43.1789 68.7887 46.2244 64.5471 45.589 59.9176C44.9536 55.2881 40.878 52.0238 36.4859 52.6267C32.0938 53.2295 29.0484 57.4711 29.6838 62.1006Z" fill="#1F1614"/>
<path fill-rule="evenodd" clip-rule="evenodd" d="M9.7494 45.346C7.76175 30.864 17.8905 17.5126 32.3725 15.5249L34.5219 15.2299C43.0231 14.0631 51.1346 17.0714 56.7866 22.6846C60.7174 15.7563 67.7184 10.6739 76.2194 9.50711L78.3688 9.21211C92.8508 7.22441 106.202 17.353 108.19 31.835C108.269 32.4127 108.329 32.9887 108.37 33.5621L108.426 33.5545L114.7 79.2705C114.982 81.3244 113.546 83.2179 111.492 83.4998L71.9821 88.9226C71.9694 88.9245 71.9567 88.9263 71.944 88.9281L59.6078 90.6212C59.588 90.6239 59.5683 90.6265 59.5486 90.6289L20.4892 95.9899C18.4353 96.2718 16.5418 94.8353 16.2599 92.7814L9.9854 47.0654L10.0409 47.0578C9.92607 46.4945 9.82869 45.9237 9.7494 45.346Z" fill="#28CB86"/>
<path d="M64.9555 58.3594C66.2589 67.8557 73.5704 74.6956 81.2862 73.6365C89.0021 72.5775 94.2004 64.0207 92.8971 54.5243C91.5937 45.0279 84.2822 38.1881 76.5663 39.2471C68.8505 40.3061 63.6521 48.863 64.9555 58.3594Z" fill="white"/>
<path d="M75.1603 51.8823C75.7957 56.5118 79.8713 59.7761 84.2634 59.1733C88.6555 58.5704 91.7009 54.3288 91.0655 49.6993C90.4301 45.0698 86.3545 41.8056 81.9624 42.4084C77.5703 43.0112 74.5249 47.2529 75.1603 51.8823Z" fill="#1F1614"/>
<path d="M30.142 63.1343C31.4454 72.6306 38.7569 79.4705 46.4728 78.4114C54.1886 77.3524 59.387 68.7956 58.0836 59.2992C56.7802 49.8028 49.4687 42.963 41.7528 44.022C34.037 45.081 28.8386 53.6379 30.142 63.1343Z" fill="white"/>
<path d="M41.4103 59.126C42.0457 63.7555 46.1213 67.0197 50.5134 66.4169C54.9055 65.8141 57.9509 61.5725 57.3155 56.943C56.6801 52.3135 52.6045 49.0492 48.2124 49.6521C43.8203 50.2549 40.7749 54.4965 41.4103 59.126Z" fill="#1F1614"/>
<path d="M73.6284 72.8099C69.6937 69.4974 59.0049 68.9978 55.2285 78.2789" stroke="#2FA372" stroke-width="4.70819" stroke-linecap="round"/>
<path d="M83.3193 31.8418L66.97 37.3401" stroke="#2FA372" stroke-width="4.6475" stroke-linecap="round"/>
</svg>
