<svg width="current" height="current" viewBox="0 0 29 28" fill="none" xmlns="http://www.w3.org/2000/svg">
<g id="Outline / Users / User Circle">
<g id="Vector">
<path fill-rule="evenodd" clip-rule="evenodd" d="M10.125 10.5C10.125 8.0838 12.0838 6.12504 14.5 6.12504C16.9163 6.12504 18.875 8.0838 18.875 10.5C18.875 12.9163 16.9163 14.875 14.5 14.875C12.0838 14.875 10.125 12.9163 10.125 10.5ZM14.5 7.87504C13.0503 7.87504 11.875 9.05029 11.875 10.5C11.875 11.9498 13.0503 13.125 14.5 13.125C15.9498 13.125 17.125 11.9498 17.125 10.5C17.125 9.05029 15.9498 7.87504 14.5 7.87504Z" fill="current"/>
<path fill-rule="evenodd" clip-rule="evenodd" d="M1.95837 14C1.95837 7.07347 7.57347 1.45837 14.5 1.45837C21.4266 1.45837 27.0417 7.07347 27.0417 14C27.0417 20.9266 21.4266 26.5417 14.5 26.5417C7.57347 26.5417 1.95837 20.9266 1.95837 14ZM14.5 3.20837C8.53997 3.20837 3.70837 8.03997 3.70837 14C3.70837 16.9699 4.90802 19.6595 6.84916 21.6108C7.05962 20.4755 7.47314 19.4051 8.30314 18.5443C9.54465 17.2568 11.5299 16.625 14.5 16.625C17.4701 16.625 19.4553 17.2568 20.6968 18.5443C21.5269 19.4051 21.9404 20.4756 22.1508 21.6109C24.092 19.6596 25.2917 16.9699 25.2917 14C25.2917 8.03997 20.4601 3.20837 14.5 3.20837ZM20.5593 22.9313C20.4405 21.5174 20.1335 20.4812 19.4371 19.759C18.6794 18.9733 17.2754 18.375 14.5 18.375C11.7245 18.375 10.3206 18.9733 9.56288 19.759C8.86652 20.4812 8.5595 21.5174 8.44064 22.9313C10.168 24.1055 12.2539 24.7917 14.5 24.7917C16.7461 24.7917 18.832 24.1055 20.5593 22.9313Z" fill="current"/>
</g>
</g>
</svg>
