<svg width="current" height="current" viewBox="0 0 29 28" fill="none" xmlns="http://www.w3.org/2000/svg">
<g id="Bold / Users / User Circle">
<path id="Vector" fill-rule="evenodd" clip-rule="evenodd" d="M26.1667 13.9999C26.1667 20.4432 20.9434 25.6666 14.5 25.6666C8.05672 25.6666 2.83337 20.4432 2.83337 13.9999C2.83337 7.5566 8.05672 2.33325 14.5 2.33325C20.9434 2.33325 26.1667 7.5566 26.1667 13.9999ZM18 10.4999C18 12.4329 16.433 13.9999 14.5 13.9999C12.567 13.9999 11 12.4329 11 10.4999C11 8.56692 12.567 6.99992 14.5 6.99992C16.433 6.99992 18 8.56692 18 10.4999ZM14.5 23.9166C16.5814 23.9166 18.513 23.2754 20.1081 22.1797C20.8126 21.6957 21.1137 20.7739 20.7041 20.0237C19.855 18.4685 18.1053 17.4999 14.5 17.4999C10.8947 17.4999 9.145 18.4685 8.29587 20.0236C7.88626 20.7738 8.18733 21.6956 8.89182 22.1796C10.4869 23.2753 12.4186 23.9166 14.5 23.9166Z" fill="current"/>
</g>
</svg>
