<svg width="current" height="current" viewBox="0 0 20 20" fill="none" xmlns="http://www.w3.org/2000/svg">
<g id="Outline / Settings, Fine Tuning / Widget Add">
<g id="Union">
<path fill-rule="evenodd" clip-rule="evenodd" d="M5.37338 1.45831C4.62465 1.45829 4.00029 1.45827 3.50464 1.52491C2.98148 1.59525 2.50915 1.74997 2.12959 2.12953C1.75003 2.50909 1.59531 2.98142 1.52497 3.50458C1.45833 4.00023 1.45835 4.62457 1.45837 5.37329V5.45998C1.45835 6.2087 1.45833 6.83307 1.52497 7.32872C1.59531 7.85188 1.75003 8.32421 2.12959 8.70377C2.50915 9.08333 2.98148 9.23805 3.50464 9.30839C4.00029 9.37503 4.62463 9.37501 5.37336 9.37498H5.46004C6.20876 9.37501 6.83313 9.37503 7.32878 9.30839C7.85194 9.23805 8.32427 9.08333 8.70383 8.70377C9.08339 8.32421 9.23811 7.85188 9.30845 7.32872C9.37509 6.83307 9.37507 6.20873 9.37505 5.46V5.37332C9.37507 4.6246 9.37509 4.00023 9.30845 3.50458C9.23811 2.98142 9.08339 2.50909 8.70383 2.12953C8.32427 1.74997 7.85194 1.59525 7.32878 1.52491C6.83313 1.45827 6.20879 1.45829 5.46007 1.45831H5.37338ZM3.01347 3.01341C3.12207 2.90482 3.28665 2.81546 3.6712 2.76376C4.07373 2.70964 4.61337 2.70832 5.41671 2.70832C6.22005 2.70832 6.75969 2.70964 7.16222 2.76376C7.54677 2.81546 7.71135 2.90482 7.81995 3.01341C7.92854 3.12201 8.0179 3.28659 8.0696 3.67114C8.12372 4.07367 8.12504 4.61331 8.12504 5.41665C8.12504 6.21999 8.12372 6.75963 8.0696 7.16216C8.0179 7.54671 7.92854 7.71129 7.81995 7.81989C7.71135 7.92848 7.54677 8.01784 7.16222 8.06954C6.75969 8.12366 6.22005 8.12498 5.41671 8.12498C4.61337 8.12498 4.07373 8.12366 3.6712 8.06954C3.28665 8.01784 3.12207 7.92848 3.01347 7.81989C2.90488 7.71129 2.81552 7.54671 2.76382 7.16216C2.7097 6.75963 2.70838 6.21999 2.70838 5.41665C2.70838 4.61331 2.7097 4.07367 2.76382 3.67114C2.81552 3.28659 2.90488 3.12201 3.01347 3.01341Z" fill="current"/>
<path d="M15.2084 2.91665C15.2084 2.57147 14.9286 2.29165 14.5834 2.29165C14.2382 2.29165 13.9584 2.57147 13.9584 2.91665V4.79165H12.0834C11.7382 4.79165 11.4584 5.07147 11.4584 5.41665C11.4584 5.76183 11.7382 6.04165 12.0834 6.04165H13.9584V7.91665C13.9584 8.26183 14.2382 8.54165 14.5834 8.54165C14.9286 8.54165 15.2084 8.26183 15.2084 7.91665V6.04165H17.0834C17.4286 6.04165 17.7084 5.76183 17.7084 5.41665C17.7084 5.07147 17.4286 4.79165 17.0834 4.79165H15.2084V2.91665Z" fill="current"/>
<path fill-rule="evenodd" clip-rule="evenodd" d="M14.54 10.625H14.6267C15.3754 10.625 15.9998 10.6249 16.4954 10.6916C17.0186 10.7619 17.4909 10.9166 17.8705 11.2962C18.2501 11.6758 18.4048 12.1481 18.4751 12.6713C18.5418 13.1669 18.5417 13.7912 18.5417 14.5399V14.6266C18.5417 15.3754 18.5418 15.9997 18.4751 16.4954C18.4048 17.0185 18.2501 17.4909 17.8705 17.8704C17.4909 18.25 17.0186 18.4047 16.4954 18.4751C15.9998 18.5417 15.3755 18.5417 14.6268 18.5417H14.54C13.7913 18.5417 13.167 18.5417 12.6713 18.4751C12.1481 18.4047 11.6758 18.25 11.2963 17.8704C10.9167 17.4909 10.762 17.0185 10.6916 16.4954C10.625 15.9997 10.625 15.3754 10.625 14.6266V14.54C10.625 13.7913 10.625 13.1669 10.6916 12.6713C10.762 12.1481 10.9167 11.6758 11.2963 11.2962C11.6758 10.9166 12.1481 10.7619 12.6713 10.6916C13.167 10.6249 13.7913 10.625 14.54 10.625ZM12.8379 11.9304C12.4533 11.9821 12.2887 12.0715 12.1801 12.1801C12.0715 12.2887 11.9822 12.4533 11.9305 12.8378C11.8764 13.2403 11.875 13.78 11.875 14.5833C11.875 15.3867 11.8764 15.9263 11.9305 16.3288C11.9822 16.7134 12.0715 16.878 12.1801 16.9866C12.2887 17.0952 12.4533 17.1845 12.8379 17.2362C13.2404 17.2903 13.78 17.2917 14.5834 17.2917C15.3867 17.2917 15.9264 17.2903 16.3289 17.2362C16.7134 17.1845 16.878 17.0952 16.9866 16.9866C17.0952 16.878 17.1846 16.7134 17.2363 16.3288C17.2904 15.9263 17.2917 15.3867 17.2917 14.5833C17.2917 13.78 17.2904 13.2403 17.2363 12.8378C17.1846 12.4533 17.0952 12.2887 16.9866 12.1801C16.878 12.0715 16.7134 11.9821 16.3289 11.9304C15.9264 11.8763 15.3867 11.875 14.5834 11.875C13.78 11.875 13.2404 11.8763 12.8379 11.9304Z" fill="current"/>
<path fill-rule="evenodd" clip-rule="evenodd" d="M5.37338 10.625C4.62464 10.625 4.0003 10.6249 3.50464 10.6916C2.98148 10.7619 2.50915 10.9166 2.12959 11.2962C1.75003 11.6758 1.59531 12.1481 1.52497 12.6713C1.45833 13.1669 1.45835 13.7912 1.45837 14.54V14.6266C1.45835 15.3754 1.45833 15.9997 1.52497 16.4954C1.59531 17.0185 1.75003 17.4909 2.12959 17.8704C2.50915 18.25 2.98148 18.4047 3.50464 18.4751C4.00029 18.5417 4.62463 18.5417 5.37336 18.5417H5.46004C6.20876 18.5417 6.83313 18.5417 7.32878 18.4751C7.85194 18.4047 8.32427 18.25 8.70383 17.8704C9.08339 17.4909 9.23811 17.0185 9.30845 16.4954C9.37509 15.9997 9.37507 15.3754 9.37505 14.6267V14.54C9.37507 13.7913 9.37509 13.1669 9.30845 12.6713C9.23811 12.1481 9.08339 11.6758 8.70383 11.2962C8.32427 10.9166 7.85194 10.7619 7.32878 10.6916C6.83313 10.6249 6.20878 10.625 5.46004 10.625H5.37338ZM3.01347 12.1801C3.12207 12.0715 3.28665 11.9821 3.6712 11.9304C4.07373 11.8763 4.61337 11.875 5.41671 11.875C6.22005 11.875 6.75969 11.8763 7.16222 11.9304C7.54677 11.9821 7.71135 12.0715 7.81995 12.1801C7.92854 12.2887 8.0179 12.4533 8.0696 12.8378C8.12372 13.2403 8.12504 13.78 8.12504 14.5833C8.12504 15.3867 8.12372 15.9263 8.0696 16.3288C8.0179 16.7134 7.92854 16.878 7.81995 16.9866C7.71135 17.0952 7.54677 17.1845 7.16222 17.2362C6.75969 17.2903 6.22005 17.2917 5.41671 17.2917C4.61337 17.2917 4.07373 17.2903 3.6712 17.2362C3.28665 17.1845 3.12207 17.0952 3.01347 16.9866C2.90488 16.878 2.81552 16.7134 2.76382 16.3288C2.7097 15.9263 2.70838 15.3867 2.70838 14.5833C2.70838 13.78 2.7097 13.2403 2.76382 12.8378C2.81552 12.4533 2.90488 12.2887 3.01347 12.1801Z" fill="current"/>
</g>
</g>
</svg>
