<svg width="current" height="current" viewBox="0 0 36 36" fill="none" xmlns="http://www.w3.org/2000/svg">
<g id="Bold / Faces, Emotions, Stickers / Emoji Funny Circle">
<path id="Vector" fill-rule="evenodd" clip-rule="evenodd" d="M18 32.4441C25.9775 32.4441 32.4445 25.9771 32.4445 17.9996C32.4445 10.0222 25.9775 3.55518 18 3.55518C10.0226 3.55518 3.5556 10.0222 3.5556 17.9996C3.5556 25.9771 10.0226 32.4441 18 32.4441ZM12.4896 23.4174C12.6351 22.837 13.2235 22.4845 13.8038 22.6299C15.4365 23.0392 17.3114 23.0442 19.2148 22.5342C21.1183 22.0242 22.7394 21.0823 23.9488 19.9116C24.3786 19.4955 25.0645 19.5066 25.4806 19.9365C25.8968 20.3663 25.8857 21.0522 25.4558 21.4683C24.9539 21.9542 24.3985 22.404 23.7963 22.8098L24.0245 23.2748C24.557 24.3596 24.099 25.6704 23.0067 26.1875C21.9361 26.6943 20.6569 26.2473 20.1349 25.184L19.8514 24.6065L19.7756 24.627C17.529 25.229 15.2796 25.2335 13.2771 24.7316C12.6967 24.5861 12.3442 23.9977 12.4896 23.4174ZM23.02 14.4112C23.3297 15.5671 22.9561 16.6714 22.1856 16.8779C21.415 17.0844 20.5393 16.3148 20.2296 15.1589C19.9198 14.0031 20.2934 12.8987 21.064 12.6922C21.8346 12.4858 22.7103 13.2554 23.02 14.4112ZM13.8144 19.1211C14.585 18.9146 14.9586 17.8103 14.6489 16.6544C14.3391 15.4986 13.4634 14.729 12.6929 14.9354C11.9223 15.1419 11.5487 16.2463 11.8584 17.4021C12.1681 18.558 13.0438 19.3276 13.8144 19.1211Z" fill="current"/>
</g>
</svg>
